<?xml version="1.0" standalone="no"?>
<!DOCTYPE svg PUBLIC "-//W3C//DTD SVG 1.1//EN" "http://www.w3.org/Graphics/SVG/1.1/DTD/svg11.dtd" >
<svg>
<metadata>
Created by FontForge 20120731 at Thu Sep 12 07:09:20 2019
 By www
Mathieu Triay 2017
</metadata>
<defs>
<font id="MarvinVisions-Bold" horiz-adv-x="734" >
  <font-face 
    font-family="Marvin Visions Bold"
    font-weight="800"
    font-stretch="normal"
    units-per-em="1000"
    panose-1="0 0 9 0 0 0 0 0 0 0"
    ascent="800"
    descent="-200"
    x-height="690"
    cap-height="690"
    bbox="-612 -230 1225 925"
    underline-thickness="50"
    underline-position="-50"
    unicode-range="U+0020-2265"
  />
<missing-glyph horiz-adv-x="515" 
d="M422 -230h-326v1030h326v-1030zM173 731v-34h67v-38h-68v-34h171v34h-68v38h68v34h-170zM172 598v-107h171v35h-68v72h-103zM240 526h-34v37h34v-37zM172 463v-34h68v-38h-68v-34h103v72h68v34h-171zM309 401v-68h-137v-35h171v103h-34zM240 276v-58h35v24h34v-49h-103
v83h-34v-117h171v117h-103zM172 98v-117h171v117h-171zM309 15h-103v49h103v-49zM172 -43v-34h72l-72 -48v-34h171v34h-105l72 48h33v34h-171z" />
    <glyph glyph-name=".notdef" horiz-adv-x="515" 
d="M422 -230h-326v1030h326v-1030zM173 731v-34h67v-38h-68v-34h171v34h-68v38h68v34h-170zM172 598v-107h171v35h-68v72h-103zM240 526h-34v37h34v-37zM172 463v-34h68v-38h-68v-34h103v72h68v34h-171zM309 401v-68h-137v-35h171v103h-34zM240 276v-58h35v24h34v-49h-103
v83h-34v-117h171v117h-103zM172 98v-117h171v117h-171zM309 15h-103v49h103v-49zM172 -43v-34h72l-72 -48v-34h171v34h-105l72 48h33v34h-171z" />
    <glyph glyph-name=".null" horiz-adv-x="0" 
 />
    <glyph glyph-name="nonmarkingreturn" horiz-adv-x="333" 
 />
    <glyph glyph-name="space" unicode=" " horiz-adv-x="200" 
 />
    <glyph glyph-name="exclam" unicode="!" horiz-adv-x="220" 
d="M185.5 137.5q19.5 -25.5 19.5 -57.5q0 -39 -28.5 -66.5t-67.5 -27.5t-66.5 27.5t-27.5 66.5q0 32 19 57.5t48 34.5h-58v518h170v-518h-58q30 -9 49.5 -34.5z" />
    <glyph glyph-name="quotedbl" unicode="&#x22;" horiz-adv-x="383" 
d="M20 690h147l-30 -265h-127zM226 690h147l-30 -265h-127z" />
    <glyph glyph-name="numbersign" unicode="#" horiz-adv-x="665" 
d="M551 422l-22 -130h99v-135h-121l-29 -172h-140l29 172h-137l-29 -172h-140l29 172h-82v135h104l22 130h-88v135h110l25 148h140l-25 -148h137l25 148h140l-25 -148h84v-135h-106zM411 422h-137l-22 -130h137z" />
    <glyph glyph-name="dollar" unicode="$" horiz-adv-x="456" 
d="M400 74.5q-47 -56.5 -121 -70.5v-85h-120v81h-146v165h203q30 0 45.5 12.5t15.5 31.5t-13.5 32.5t-33.5 20.5q-79 26 -110.5 40t-54.5 38q-54 55 -54 143q0 74 38.5 128.5t109.5 71.5v93h120v-86h83v-165h-133q-25 0 -36.5 -12t-11.5 -31q0 -40 45 -53q65 -19 100 -33
t60 -35q30 -26 45.5 -65t15.5 -84q0 -81 -47 -137.5z" />
    <glyph glyph-name="percent" unicode="%" horiz-adv-x="840" 
d="M101 364.5q-42 24.5 -66.5 66.5t-24.5 93t24.5 92.5t66.5 65.5t93 24t93 -24t66.5 -65.5t24.5 -92.5t-24.5 -93t-66.5 -66.5t-93 -24.5t-93 24.5zM530 690h180l-400 -690h-180zM232.5 484q16.5 17 16.5 41q0 23 -16.5 39t-39.5 16t-38.5 -16t-15.5 -39q0 -24 15.5 -41
t38.5 -17t39.5 17zM553 4.5q-42 24.5 -66.5 66.5t-24.5 93q0 50 24.5 91.5t66.5 66t93 24.5t93 -24.5t66.5 -66t24.5 -91.5q0 -51 -24.5 -93t-66.5 -66.5t-93 -24.5t-93 24.5zM684.5 124q16.5 17 16.5 41q0 23 -16.5 39t-39.5 16t-38.5 -16t-15.5 -39q0 -24 15.5 -41
t38.5 -17t39.5 17z" />
    <glyph glyph-name="ampersand" unicode="&#x26;" horiz-adv-x="577" 
d="M571 300h-65v-71q0 -67 -33.5 -124t-91.5 -91t-126 -34t-125 32t-90.5 88t-33.5 123q0 48 18.5 91t57.5 73q-45 45 -45 111q0 55 26 102.5t75.5 76.5t116.5 29h162v-150h-162q-25 0 -42.5 -17.5t-17.5 -42.5q0 -24 17.5 -40.5t42.5 -16.5h81v61h170v-61h65v-139zM336 300
h-71q-40 0 -64.5 -22t-24.5 -58q0 -34 23.5 -57t56.5 -23q34 0 57 25t23 65v70z" />
    <glyph glyph-name="quotesingle" unicode="'" horiz-adv-x="177" 
d="M20 690h147l-30 -265h-127z" />
    <glyph glyph-name="parenleft" unicode="(" horiz-adv-x="319" 
d="M45 79q-39 124 -39 259q0 139 38 268t115 236l160 -2q-68 -98 -115.5 -243.5t-47.5 -258.5q0 -110 47 -249.5t116 -238.5h-160q-75 105 -114 229z" />
    <glyph glyph-name="parenright" unicode=")" horiz-adv-x="325" 
d="M280 79q39 124 39 259q0 139 -38 268t-115 236l-160 -2q68 -98 115.5 -243.5t47.5 -258.5q0 -110 -47 -249.5t-116 -238.5h160q75 105 114 229z" />
    <glyph glyph-name="asterisk" unicode="*" horiz-adv-x="325" 
d="M225 573l67 -64l-81 -58l-49 86l-49 -88l-81 59l68 65l-94 22l32 96l86 -48l-14 95h103l-13 -96l88 49l31 -96z" />
    <glyph glyph-name="plus" unicode="+" horiz-adv-x="520" 
d="M510 278h-180v-183h-140v183h-180v135h180v182h140v-182h180v-135z" />
    <glyph glyph-name="comma" unicode="," horiz-adv-x="195" 
d="M40 -68q41 37 41 74q-35 2 -55 27t-20 57q0 37 25.5 61.5t63.5 24.5q40 0 67 -28t27 -77q0 -42 -20 -75.5t-54 -52.5t-75 -19v8z" />
    <glyph glyph-name="hyphen" unicode="-" horiz-adv-x="330" 
d="M15 415h300v-140h-300v140z" />
    <glyph glyph-name="period" unicode="." horiz-adv-x="202" 
d="M33.5 20.5q-27.5 27.5 -27.5 68.5q0 39 27.5 66.5t68.5 27.5q40 0 67 -27.5t27 -66.5q0 -41 -27 -68.5t-67 -27.5q-41 0 -68.5 27.5z" />
    <glyph glyph-name="slash" unicode="/" horiz-adv-x="310" 
d="M160 750h150l-160 -850h-150z" />
    <glyph glyph-name="zero" unicode="0" horiz-adv-x="540" 
d="M134 15.5q-59 35.5 -91.5 93.5t-32.5 121v215q0 71 32 131.5t91.5 97t136.5 36.5t136.5 -36.5t91.5 -97t32 -131.5v-215q0 -63 -32.5 -121t-91.5 -93.5t-136 -35.5t-136 35.5zM341.5 176.5q18.5 31.5 18.5 93.5v140q0 67 -19 101t-71 34t-71 -34t-19 -101v-140
q0 -62 19 -93.5t71 -31.5q53 0 71.5 31.5z" />
    <glyph glyph-name="one" unicode="1" horiz-adv-x="280" 
d="M265 0h-170v530h-85v160h255v-690z" />
    <glyph glyph-name="two" unicode="2" horiz-adv-x="553" 
d="M509 328.5q-29 -48.5 -69 -80.5t-117 -83h192v-165h-465v165l250 180q34 24 51 47.5t17 51.5q0 42 -28 71.5t-68 29.5t-68 -29.5t-28 -71.5q0 -36 28 -71l-138 -98q-28 34 -44 78t-16 91q0 72 36 133t97 97t133 36t133 -36t97 -97t36 -133q0 -67 -29 -115.5z" />
    <glyph glyph-name="three" unicode="3" horiz-adv-x="551" 
d="M143.5 19q-61.5 36 -97.5 97.5t-36 133.5v19h171v-13q0 -44 28 -75t69 -31q40 0 68.5 30t28.5 70q0 33 -17.5 61t-46.5 41q-13 6 -30.5 7.5t-72.5 1.5h-113l169 161h-207v165h410v-165h-133q63 -15 111 -54.5t74 -96.5t26 -121q0 -72 -36 -133.5t-97.5 -97.5t-134.5 -36
q-72 0 -133.5 36z" />
    <glyph glyph-name="four" unicode="4" horiz-adv-x="580" 
d="M320 169h-310v160l270 361h205v-361h85v-160h-85v-169h-165v169zM320 329v151l-112 -151h112z" />
    <glyph glyph-name="five" unicode="5" horiz-adv-x="527" 
d="M407 445q52 -31 83 -86t31 -124t-34.5 -127.5t-93 -93t-127.5 -34.5q-65 0 -120.5 30t-91 82.5t-42.5 115.5h173q8 -27 30.5 -44t50.5 -17q35 0 60 26t25 62t-25 62t-60 26q-21 0 -39 -9.5t-30 -26.5l-157 3v400h440v-165h-270v-64q40 15 85 15q60 0 112 -31z" />
    <glyph glyph-name="six" unicode="6" horiz-adv-x="547" 
d="M426 463q54 -35 84.5 -91.5t30.5 -124.5q0 -72 -36 -133.5t-97.5 -97.5t-134.5 -36q-72 0 -133.5 36t-97.5 97.5t-36 133.5q0 74 38 136h-1l178 307h190l-108 -185q69 -7 123 -42zM342.5 177q28.5 30 28.5 70q0 41 -28.5 71t-68.5 30t-68.5 -30t-28.5 -71q0 -40 28.5 -70
t68.5 -30t68.5 30z" />
    <glyph glyph-name="seven" unicode="7" horiz-adv-x="448" 
d="M253 525h-246v165h436v-165l-246 -525h-190z" />
    <glyph glyph-name="eight" unicode="8" horiz-adv-x="512" 
d="M130 14q-57 34 -90.5 91t-33.5 123q0 49 19.5 92t56.5 67q-25 30 -35 56.5t-10 55.5q0 55 29.5 103.5t79.5 78t109 29.5t109 -29.5t79.5 -78t29.5 -102.5q0 -70 -45 -112q38 -24 58 -68t20 -94q0 -65 -34 -121.5t-91.5 -90.5t-125.5 -34t-125 34zM297.5 456.5
q17.5 17.5 17.5 42.5t-17.5 43t-42.5 18t-42.5 -18t-17.5 -43t17.5 -42.5t42.5 -17.5t42.5 17.5zM312.5 163q23.5 23 23.5 57q0 33 -23.5 56.5t-56.5 23.5t-56.5 -23.5t-23.5 -56.5q0 -34 23.5 -57t56.5 -23t56.5 23z" />
    <glyph glyph-name="nine" unicode="9" horiz-adv-x="547" 
d="M121 227q-54 35 -84.5 91.5t-30.5 124.5q0 72 36 133.5t97.5 97.5t134.5 36q72 0 133.5 -36t97.5 -97.5t36 -133.5q0 -74 -38 -136h1l-178 -307h-190l108 185q-69 7 -123 42zM204.5 513q-28.5 -30 -28.5 -70q0 -41 28.5 -71t68.5 -30t68.5 30t28.5 71q0 40 -28.5 70
t-68.5 30t-68.5 -30z" />
    <glyph glyph-name="colon" unicode=":" horiz-adv-x="211" 
d="M33.5 127.5q-27.5 27.5 -27.5 68.5q0 39 27.5 66.5t68.5 27.5q40 0 67 -27.5t27 -66.5q0 -41 -27 -68.5t-67 -27.5q-41 0 -68.5 27.5zM33.5 407.5q-27.5 27.5 -27.5 68.5q0 39 27.5 66.5t68.5 27.5q40 0 67 -27.5t27 -66.5q0 -41 -27 -68.5t-67 -27.5q-41 0 -68.5 27.5z
" />
    <glyph glyph-name="semicolon" unicode=";" horiz-adv-x="203" 
d="M34.5 417.5q-27.5 27.5 -27.5 68.5q0 39 27.5 66.5t68.5 27.5q40 0 67 -27.5t27 -66.5q0 -41 -27 -68.5t-67 -27.5q-41 0 -68.5 27.5zM40 50q41 37 41 74q-35 2 -55 27t-20 57q0 37 25.5 61.5t63.5 24.5q40 0 67 -28t27 -77q0 -42 -20 -75.5t-54 -52.5t-75 -19v8z" />
    <glyph glyph-name="less" unicode="&#x3c;" horiz-adv-x="472" 
d="M10 415v-140l449 -185v140l-284 117l284 123v140z" />
    <glyph glyph-name="equal" unicode="=" horiz-adv-x="536" 
d="M18 525h500v-140h-500v140zM18 305h500v-140h-500v140z" />
    <glyph glyph-name="greater" unicode="&#x3e;" horiz-adv-x="472" 
d="M462 415v-140l-449 -185v140l284 117l-284 123v140z" />
    <glyph glyph-name="question" unicode="?" horiz-adv-x="542" 
d="M503.5 308.5q-32.5 -58.5 -88.5 -94.5t-123 -41q31 -8 51 -34t20 -59q0 -39 -28 -66.5t-67 -27.5t-67 27.5t-28 66.5q0 32 19 57.5t49 34.5h-57v165h27q58 0 80 4t36 15q18 14 28.5 34.5t10.5 44.5q0 40 -28 69t-67 29t-67 -29t-28 -69h-170q0 72 35.5 133t96.5 96.5
t133 35.5t133 -35.5t96.5 -96.5t35.5 -133q0 -68 -32.5 -126.5z" />
    <glyph glyph-name="at" unicode="@" horiz-adv-x="914" 
d="M681 716q103 -60 163 -163t60 -225v-131q0 -50 -25.5 -93t-68.5 -68.5t-93 -25.5q-57 0 -104 31.5t-69 81.5q-40 -18 -88 -18q-60 0 -111.5 30t-81.5 81.5t-30 111.5t30 111.5t81.5 81.5t111.5 30t111.5 -30t81.5 -81.5t30 -111.5v-131q0 -16 11 -27t27 -11q15 0 26 11
t11 27v131q0 81 -40 151t-108.5 111t-149.5 41t-149.5 -41t-108.5 -111t-40 -151t40 -151t108.5 -111t149.5 -41v-145q-122 0 -225 60t-163 163t-60 225t60 225t163 163t225 60t225 -60zM507.5 273.5q21.5 23.5 21.5 54.5t-21.5 54.5t-51.5 23.5t-51.5 -23.5t-21.5 -54.5
t21.5 -54.5t51.5 -23.5t51.5 23.5z" />
    <glyph glyph-name="A" unicode="A" horiz-adv-x="517" 
d="M74 480.5q62 106.5 172 158t256 51.5v-690h-170v100h-150v-100h-170v214q0 160 62 266.5zM332 265v226q-132 -52 -148 -226h148z" />
    <glyph glyph-name="B" unicode="B" horiz-adv-x="510" 
d="M15 690h191q68 0 96 -3q59 -7 101 -38t63 -75.5t21 -91.5q0 -37 -13.5 -70.5t-42.5 -56.5q33 -24 53.5 -66t20.5 -89q0 -54 -27 -100t-78 -73t-119 -27h-266v690zM264 425q20 0 36.5 14.5t16.5 37.5t-16.5 38t-36.5 15h-79v-105h79zM281 160q21 0 37.5 13.5t16.5 38.5
t-16.5 39t-37.5 14h-96v-105h96z" />
    <glyph glyph-name="C" unicode="C" horiz-adv-x="406" 
d="M260 12q-72 19 -130 67.5t-91 118t-33 147.5q0 79 33 148.5t91 118t131 66.5q47 12 120 12h10v-165h-10q-81 0 -129 -33q-34 -23 -55 -63t-21 -84t21 -84t55 -63q48 -33 129 -33h10v-165h-10q-73 0 -121 12z" />
    <glyph glyph-name="D" unicode="D" horiz-adv-x="561" 
d="M15 690h120q94 0 139 -8q72 -12 136.5 -58t104.5 -119t40 -161q0 -77 -30.5 -142t-82.5 -111t-116 -68q-67 -23 -191 -23h-120v690zM293 189.5q45 24.5 68.5 65.5t23.5 90t-23.5 90t-68.5 65.5t-108 24.5v-360q63 0 108 24.5z" />
    <glyph glyph-name="E" unicode="E" horiz-adv-x="465" 
d="M185 525v-100h180v-160h-180v-100h265v-165h-435v690h435v-165h-265z" />
    <glyph glyph-name="F" unicode="F" horiz-adv-x="465" 
d="M185 525v-100h180v-160h-180v-265h-170v690h435v-165h-265z" />
    <glyph glyph-name="G" unicode="G" horiz-adv-x="547" 
d="M532 350v-350h-170q-101 0 -182.5 46t-127.5 125t-46 174q0 85 36.5 157t99.5 119.5t141 61.5q37 7 148 7h15v-165h-15q-68 0 -96 -2.5t-45 -9.5q-50 -19 -82 -66t-32 -103q0 -47 24 -88t66.5 -66t95.5 -25v185h170z" />
    <glyph glyph-name="H" unicode="H" horiz-adv-x="570" 
d="M555 690v-690h-170v265h-200v-265h-170v690h170v-265h200v265h170z" />
    <glyph glyph-name="I" unicode="I" horiz-adv-x="200" 
d="M15 690h170v-690h-170v690z" />
    <glyph glyph-name="J" unicode="J" horiz-adv-x="252" 
d="M7 165q31 0 45.5 12.5t14.5 43.5v469h170v-469q0 -100 -60 -160.5t-170 -60.5v165z" />
    <glyph glyph-name="K" unicode="K" horiz-adv-x="515" 
d="M15 690h170v-280l145 280h180l-166 -322q80 -32 118 -108t38 -175v-85h-170v85q0 78 -36 121.5t-109 43.5v-250h-170v690z" />
    <glyph glyph-name="L" unicode="L" horiz-adv-x="367" 
d="M355 165v-165h-340v690h170v-525h170z" />
    <glyph glyph-name="M" unicode="M" horiz-adv-x="806" 
d="M15 690h170q67 0 128.5 -30t89.5 -70q28 40 89.5 70t128.5 30h170v-690h-170v520q-34 -2 -66.5 -18.5t-53 -49t-20.5 -77.5v-375h-156v375q0 45 -20.5 77.5t-53 49t-66.5 18.5v-520h-170v690z" />
    <glyph glyph-name="N" unicode="N" horiz-adv-x="525" 
d="M510 690v-690h-170v214q0 215 -155 266v-480h-170v690q101 0 183 -30.5t142 -88.5v119h170z" />
    <glyph glyph-name="O" unicode="O" 
d="M184.5 33q-82.5 48 -130.5 131t-48 182q0 98 48 180.5t130.5 130.5t181.5 48t182 -48t131.5 -130.5t48.5 -180.5q0 -99 -48.5 -182t-131.5 -131t-182 -48t-181.5 48zM462 177q44 26 70 70.5t26 96.5t-26 96.5t-70 71.5t-95 27q-52 0 -96 -26.5t-69.5 -71.5t-25.5 -97
t25.5 -96.5t69.5 -70.5t96 -26q51 0 95 26z" />
    <glyph glyph-name="P" unicode="P" horiz-adv-x="493" 
d="M15 690h110q83 0 125 -4q68 -8 121 -41t83.5 -87t30.5 -123q0 -76 -37.5 -132.5t-105.5 -87t-157 -30.5v-185h-170v690zM279 366.5q36 21.5 36 70.5t-36 71t-94 22v-185q58 0 94 21.5z" />
    <glyph glyph-name="Q" unicode="Q" 
d="M624 -22.5q19 -42.5 19 -82.5l-175 -2q-18 88 -97 92h-5q-99 0 -181.5 48t-130.5 131t-48 182q0 98 48 180.5t130.5 130.5t181.5 48t182 -48t131.5 -130.5t48.5 -180.5q0 -91 -41.5 -169t-112.5 -128q31 -29 50 -71.5zM201.5 247.5q25.5 -44.5 69.5 -70.5t96 -26
q51 0 95 26t70 70.5t26 96.5t-26 96.5t-70 71.5t-95 27q-52 0 -96 -26.5t-69.5 -71.5t-25.5 -97t25.5 -96.5z" />
    <glyph glyph-name="R" unicode="R" horiz-adv-x="500" 
d="M465 172.5q25 -54.5 25 -127.5v-45h-170v45q0 59 -38 99.5t-97 40.5v-185h-170v690h110q83 0 125 -4q68 -7 121.5 -40t83.5 -86.5t30 -119.5q0 -58 -24 -103t-69 -75q48 -35 73 -89.5zM185 345q130 0 130 90q0 49 -36 72t-94 23v-185z" />
    <glyph glyph-name="S" unicode="S" horiz-adv-x="458" 
d="M14 165h203q30 0 45.5 12.5t15.5 31.5t-13.5 32.5t-33.5 20.5q-79 26 -110.5 40t-54.5 38q-54 55 -54 143q0 76 40 131t113 70q26 6 105 6h93v-165h-133q-25 0 -36.5 -12t-11.5 -31q0 -40 45 -53q65 -19 100 -33t60 -35q30 -26 45.5 -65t15.5 -84q0 -62 -28.5 -110.5
t-76.5 -75t-106 -26.5h-223v165z" />
    <glyph glyph-name="T" unicode="T" horiz-adv-x="510" 
d="M495 525h-155v-525h-170v525h-155v165h480v-165z" />
    <glyph glyph-name="U" unicode="U" horiz-adv-x="526" 
d="M143.5 19q-56.5 29 -92.5 90t-36 151v430h170v-430q0 -51 18 -78t60 -27t60 27t18 78v430h170v-430q0 -90 -36 -151t-92.5 -90t-119.5 -29t-119.5 29z" />
    <glyph glyph-name="V" unicode="V" horiz-adv-x="520" 
d="M185 690v-491q150 58 150 277v214h170v-218q0 -158 -62 -263.5t-172 -157t-256 -51.5v690h170z" />
    <glyph glyph-name="W" unicode="W" horiz-adv-x="808" 
d="M137.5 19q-54.5 29 -88.5 90t-34 151v430h170v-430q0 -57 17.5 -81t49.5 -24t49.5 24t17.5 81v430h170v-430q0 -57 17.5 -81t49.5 -24t49.5 24t17.5 81v430h170v-430q0 -90 -34 -151t-88.5 -90t-116.5 -29q-45 0 -85 16t-65 49q-25 -33 -65 -49t-85 -16q-62 0 -116.5 29z
" />
    <glyph glyph-name="X" unicode="X" horiz-adv-x="582" 
d="M396 0l-105 198l-105 -198h-180l190 359l-175 331h180l90 -170l90 170h180l-175 -331l190 -359h-180z" />
    <glyph glyph-name="Y" unicode="Y" horiz-adv-x="550" 
d="M190 340l-185 350h180l90 -170l90 170h180l-185 -350v-340h-170v340z" />
    <glyph glyph-name="Z" unicode="Z" horiz-adv-x="570" 
d="M285 525h-217v165h490l-273 -525h275v-165h-555z" />
    <glyph glyph-name="bracketleft" unicode="[" horiz-adv-x="285" 
d="M165 690v-690h120v-150h-270v990h270v-150h-120z" />
    <glyph glyph-name="backslash" unicode="\" horiz-adv-x="312" 
d="M1 750h150l160 -850h-150z" />
    <glyph glyph-name="bracketright" unicode="]" horiz-adv-x="285" 
d="M120 690v-690h-120v-150h270v990h-270v-150h120z" />
    <glyph glyph-name="asciicircum" unicode="^" horiz-adv-x="466" 
d="M454 548v-160l-221 180l-221 -180v160l221 182z" />
    <glyph glyph-name="underscore" unicode="_" horiz-adv-x="535" 
d="M15 175h505v-140h-505v140z" />
    <glyph glyph-name="grave" unicode="`" horiz-adv-x="225" 
d="M78 580l-75 141h159l60 -141h-144z" />
    <glyph glyph-name="a" unicode="a" horiz-adv-x="517" 
d="M74 480.5q62 106.5 172 158t256 51.5v-690h-170v100h-150v-100h-170v214q0 160 62 266.5zM332 265v226q-132 -52 -148 -226h148z" />
    <glyph glyph-name="b" unicode="b" horiz-adv-x="510" 
d="M15 690h191q68 0 96 -3q59 -7 101 -38t63 -75.5t21 -91.5q0 -37 -13.5 -70.5t-42.5 -56.5q33 -24 53.5 -66t20.5 -89q0 -54 -27 -100t-78 -73t-119 -27h-266v690zM264 425q20 0 36.5 14.5t16.5 37.5t-16.5 38t-36.5 15h-79v-105h79zM281 160q21 0 37.5 13.5t16.5 38.5
t-16.5 39t-37.5 14h-96v-105h96z" />
    <glyph glyph-name="c" unicode="c" horiz-adv-x="406" 
d="M260 12q-72 19 -130 67.5t-91 118t-33 147.5q0 79 33 148.5t91 118t131 66.5q47 12 120 12h10v-165h-10q-81 0 -129 -33q-34 -23 -55 -63t-21 -84t21 -84t55 -63q48 -33 129 -33h10v-165h-10q-73 0 -121 12z" />
    <glyph glyph-name="d" unicode="d" horiz-adv-x="561" 
d="M15 690h120q94 0 139 -8q72 -12 136.5 -58t104.5 -119t40 -161q0 -77 -30.5 -142t-82.5 -111t-116 -68q-67 -23 -191 -23h-120v690zM293 189.5q45 24.5 68.5 65.5t23.5 90t-23.5 90t-68.5 65.5t-108 24.5v-360q63 0 108 24.5z" />
    <glyph glyph-name="e" unicode="e" horiz-adv-x="465" 
d="M185 525v-100h180v-160h-180v-100h265v-165h-435v690h435v-165h-265z" />
    <glyph glyph-name="f" unicode="f" horiz-adv-x="465" 
d="M185 525v-100h180v-160h-180v-265h-170v690h435v-165h-265z" />
    <glyph glyph-name="g" unicode="g" horiz-adv-x="547" 
d="M532 350v-350h-170q-101 0 -182.5 46t-127.5 125t-46 174q0 85 36.5 157t99.5 119.5t141 61.5q37 7 148 7h15v-165h-15q-68 0 -96 -2.5t-45 -9.5q-50 -19 -82 -66t-32 -103q0 -47 24 -88t66.5 -66t95.5 -25v185h170z" />
    <glyph glyph-name="h" unicode="h" horiz-adv-x="570" 
d="M555 690v-690h-170v265h-200v-265h-170v690h170v-265h200v265h170z" />
    <glyph glyph-name="i" unicode="i" horiz-adv-x="200" 
d="M15 690h170v-690h-170v690z" />
    <glyph glyph-name="j" unicode="j" horiz-adv-x="252" 
d="M7 165q31 0 45.5 12.5t14.5 43.5v469h170v-469q0 -100 -60 -160.5t-170 -60.5v165z" />
    <glyph glyph-name="k" unicode="k" horiz-adv-x="515" 
d="M15 690h170v-280l145 280h180l-166 -322q80 -32 118 -108t38 -175v-85h-170v85q0 78 -36 121.5t-109 43.5v-250h-170v690z" />
    <glyph glyph-name="l" unicode="l" horiz-adv-x="367" 
d="M355 165v-165h-340v690h170v-525h170z" />
    <glyph glyph-name="m" unicode="m" horiz-adv-x="806" 
d="M15 690h170q67 0 128.5 -30t89.5 -70q28 40 89.5 70t128.5 30h170v-690h-170v520q-34 -2 -66.5 -18.5t-53 -49t-20.5 -77.5v-375h-156v375q0 45 -20.5 77.5t-53 49t-66.5 18.5v-520h-170v690z" />
    <glyph glyph-name="n" unicode="n" horiz-adv-x="525" 
d="M510 690v-690h-170v214q0 215 -155 266v-480h-170v690q101 0 183 -30.5t142 -88.5v119h170z" />
    <glyph glyph-name="o" unicode="o" 
d="M184.5 33q-82.5 48 -130.5 131t-48 182q0 98 48 180.5t130.5 130.5t181.5 48t182 -48t131.5 -130.5t48.5 -180.5q0 -99 -48.5 -182t-131.5 -131t-182 -48t-181.5 48zM462 177q44 26 70 70.5t26 96.5t-26 96.5t-70 71.5t-95 27q-52 0 -96 -26.5t-69.5 -71.5t-25.5 -97
t25.5 -96.5t69.5 -70.5t96 -26q51 0 95 26z" />
    <glyph glyph-name="p" unicode="p" horiz-adv-x="493" 
d="M15 690h110q83 0 125 -4q68 -8 121 -41t83.5 -87t30.5 -123q0 -76 -37.5 -132.5t-105.5 -87t-157 -30.5v-185h-170v690zM279 366.5q36 21.5 36 70.5t-36 71t-94 22v-185q58 0 94 21.5z" />
    <glyph glyph-name="q" unicode="q" 
d="M624 -22.5q19 -42.5 19 -82.5l-175 -2q-18 88 -97 92h-5q-99 0 -181.5 48t-130.5 131t-48 182q0 98 48 180.5t130.5 130.5t181.5 48t182 -48t131.5 -130.5t48.5 -180.5q0 -91 -41.5 -169t-112.5 -128q31 -29 50 -71.5zM201.5 247.5q25.5 -44.5 69.5 -70.5t96 -26
q51 0 95 26t70 70.5t26 96.5t-26 96.5t-70 71.5t-95 27q-52 0 -96 -26.5t-69.5 -71.5t-25.5 -97t25.5 -96.5z" />
    <glyph glyph-name="r" unicode="r" horiz-adv-x="500" 
d="M465 172.5q25 -54.5 25 -127.5v-45h-170v45q0 59 -38 99.5t-97 40.5v-185h-170v690h110q83 0 125 -4q68 -7 121.5 -40t83.5 -86.5t30 -119.5q0 -58 -24 -103t-69 -75q48 -35 73 -89.5zM185 345q130 0 130 90q0 49 -36 72t-94 23v-185z" />
    <glyph glyph-name="s" unicode="s" horiz-adv-x="458" 
d="M14 165h203q30 0 45.5 12.5t15.5 31.5t-13.5 32.5t-33.5 20.5q-79 26 -110.5 40t-54.5 38q-54 55 -54 143q0 76 40 131t113 70q26 6 105 6h93v-165h-133q-25 0 -36.5 -12t-11.5 -31q0 -40 45 -53q65 -19 100 -33t60 -35q30 -26 45.5 -65t15.5 -84q0 -62 -28.5 -110.5
t-76.5 -75t-106 -26.5h-223v165z" />
    <glyph glyph-name="t" unicode="t" horiz-adv-x="510" 
d="M495 525h-155v-525h-170v525h-155v165h480v-165z" />
    <glyph glyph-name="u" unicode="u" horiz-adv-x="526" 
d="M143.5 19q-56.5 29 -92.5 90t-36 151v430h170v-430q0 -51 18 -78t60 -27t60 27t18 78v430h170v-430q0 -90 -36 -151t-92.5 -90t-119.5 -29t-119.5 29z" />
    <glyph glyph-name="v" unicode="v" horiz-adv-x="520" 
d="M185 690v-491q150 58 150 277v214h170v-218q0 -158 -62 -263.5t-172 -157t-256 -51.5v690h170z" />
    <glyph glyph-name="w" unicode="w" horiz-adv-x="808" 
d="M137.5 19q-54.5 29 -88.5 90t-34 151v430h170v-430q0 -57 17.5 -81t49.5 -24t49.5 24t17.5 81v430h170v-430q0 -57 17.5 -81t49.5 -24t49.5 24t17.5 81v430h170v-430q0 -90 -34 -151t-88.5 -90t-116.5 -29q-45 0 -85 16t-65 49q-25 -33 -65 -49t-85 -16q-62 0 -116.5 29z
" />
    <glyph glyph-name="x" unicode="x" horiz-adv-x="582" 
d="M396 0l-105 198l-105 -198h-180l190 359l-175 331h180l90 -170l90 170h180l-175 -331l190 -359h-180z" />
    <glyph glyph-name="y" unicode="y" horiz-adv-x="550" 
d="M190 340l-185 350h180l90 -170l90 170h180l-185 -350v-340h-170v340z" />
    <glyph glyph-name="z" unicode="z" horiz-adv-x="570" 
d="M285 525h-217v165h490l-273 -525h275v-165h-555z" />
    <glyph glyph-name="braceleft" unicode="{" horiz-adv-x="414" 
d="M258.5 369.5q-24.5 -24.5 -70.5 -24.5q46 0 70.5 -24.5t24.5 -70.5v-155q0 -46 24.5 -70.5t70.5 -24.5h25v-150h-25q-119 0 -182 63t-63 182v130q0 24 -13 37t-37 13h-72v140h72q24 0 37 13t13 37v130q0 119 63 182t182 63h25v-150h-25q-46 0 -70.5 -24.5t-24.5 -70.5
v-155q0 -46 -24.5 -70.5z" />
    <glyph glyph-name="bar" unicode="|" horiz-adv-x="196" 
d="M18 750h160v-850h-160v850z" />
    <glyph glyph-name="braceright" unicode="}" horiz-adv-x="434" 
d="M175.5 369.5q24.5 -24.5 70.5 -24.5q-46 0 -70.5 -24.5t-24.5 -70.5v-155q0 -46 -24.5 -70.5t-70.5 -24.5h-25v-150h25q119 0 182 63t63 182v130q0 24 13 37t37 13h72v140h-72q-24 0 -37 13t-13 37v130q0 119 -63 182t-182 63h-25v-150h25q46 0 70.5 -24.5t24.5 -70.5
v-155q0 -46 24.5 -70.5z" />
    <glyph glyph-name="asciitilde" unicode="~" horiz-adv-x="647" 
d="M39 343q29 49 78 78t107 29q40 0 67.5 -12t61.5 -34q25 -15 39 -22t31 -7q30 0 52 24t22 55h140q0 -58 -29 -107t-78 -78t-107 -29q-40 0 -67.5 12t-61.5 34q-25 15 -39 22t-31 7q-30 0 -52 -24t-22 -55h-140q0 58 29 107z" />
    <glyph glyph-name="exclamdown" unicode="&#xa1;" horiz-adv-x="220" 
d="M185.5 358.5q19.5 25.5 19.5 57.5q0 39 -28.5 66.5t-67.5 27.5t-66.5 -27.5t-27.5 -66.5q0 -32 19 -57.5t48 -34.5h-58v-518h170v518h-58q30 9 49.5 34.5z" />
    <glyph glyph-name="cent" unicode="&#xa2;" horiz-adv-x="408" 
d="M201 429q-21 -40 -21 -84t21 -84t55 -63q48 -33 129 -33h10v-165h-10q-31 0 -44 1v-82h-120v107q-94 40 -152.5 126.5t-58.5 192.5t58.5 193t152.5 125v113h120v-87q13 1 44 1h10v-165h-10q-81 0 -129 -33q-34 -23 -55 -63z" />
    <glyph glyph-name="sterling" unicode="&#xa3;" horiz-adv-x="568" 
d="M247 160h310v-160h-544v160h64v75h-64v160h64v75q0 65 32 120.5t87.5 87.5t120.5 32t120.5 -32t87.5 -87.5t32 -120.5h-170q0 29 -20.5 50.5t-49.5 21.5t-49.5 -21.5t-20.5 -50.5v-75h224v-160h-224v-75z" />
    <glyph glyph-name="currency" unicode="&#xa4;" horiz-adv-x="628" 
d="M537 178l77 -91l-102 -87l-79 92q-58 -28 -125 -28q-65 0 -120 26l-77 -90l-102 87l75 88q-57 74 -57 171q0 94 56 169l-74 88l102 87l77 -90q55 26 120 26q67 0 126 -28l78 92l102 -87l-77 -91q54 -75 54 -166q0 -93 -54 -168zM227 261.5q34 -34.5 82 -34.5
q47 0 81 34.5t34 82.5q0 31 -16 58.5t-42.5 44t-56.5 16.5q-31 0 -58 -16.5t-42.5 -44t-15.5 -58.5q0 -48 34 -82.5z" />
    <glyph glyph-name="yen" unicode="&#xa5;" horiz-adv-x="556" 
d="M363 340h86v-90h-86v-45h86v-90h-86v-115h-170v115h-84v90h84v45h-84v90h84l-185 350h180l90 -170l90 170h180z" />
    <glyph glyph-name="brokenbar" unicode="&#xa6;" horiz-adv-x="196" 
d="M18 750h160v-360h-160v360zM18 260h160v-360h-160v360z" />
    <glyph glyph-name="section" unicode="&#xa7;" horiz-adv-x="439" 
d="M375 190q50 -60 50 -135q0 -56 -28 -103.5t-76 -75.5t-104 -28t-103.5 28t-75.5 75.5t-28 103.5h151q0 -22 17 -39t39 -17t38.5 17t16.5 39t-16 38t-37 17q-53 0 -97.5 26t-70 70t-25.5 97q0 64 37 115q-49 58 -49 134q0 56 28 103.5t76 75.5t104 28t103.5 -28
t75.5 -75.5t28 -103.5h-151q0 22 -17 39t-39 17t-38.5 -17t-16.5 -39t16 -38t37 -17q53 0 96.5 -26t69 -70.5t25.5 -97.5q0 -63 -36 -113zM183.5 267q15.5 -16 35.5 -16t35.5 16t15.5 36q0 21 -15.5 37t-35.5 16t-35.5 -16t-15.5 -37q0 -20 15.5 -36z" />
    <glyph glyph-name="dieresis" unicode="&#xa8;" horiz-adv-x="370" 
d="M28.5 602.5q-23.5 22.5 -23.5 54.5t23.5 55t55.5 23q31 0 53.5 -23t22.5 -55t-22.5 -54.5t-53.5 -22.5q-32 0 -55.5 22.5zM232.5 602.5q-22.5 22.5 -22.5 54.5t22.5 55t54.5 23t55 -23t23 -55t-23 -54.5t-55 -22.5t-54.5 22.5z" />
    <glyph glyph-name="copyright" unicode="&#xa9;" horiz-adv-x="754" 
d="M192.5 28.5q-84.5 49.5 -134 134.5t-49.5 185q0 99 49.5 183t134 133.5t183.5 49.5q100 0 185 -49.5t134.5 -133.5t49.5 -183q0 -100 -49.5 -185t-134.5 -134.5t-185 -49.5q-99 0 -183.5 49.5zM507 113q60 37 95.5 99t35.5 134q0 71 -35.5 133.5t-95.5 100t-130 37.5
q-71 0 -131 -37.5t-95 -100t-35 -133.5q0 -72 35 -134t95 -99t131 -37q70 0 130 37zM311.5 166q-48.5 28 -76.5 76t-28 104q0 57 28 105t76.5 76t105.5 28h30v-101h-30q-44 0 -75.5 -32t-31.5 -76q0 -43 31.5 -75t75.5 -32h30v-101h-30q-57 0 -105.5 28z" />
    <glyph glyph-name="guillemotleft" unicode="&#xab;" horiz-adv-x="494" 
d="M157 317l110 -193h-152l-110 193l110 193h152zM374 317l110 -193h-152l-110 193l110 193h152z" />
    <glyph glyph-name="logicalnot" unicode="&#xac;" horiz-adv-x="600" 
d="M530 135h-145v140h-355v140h500v-280z" />
    <glyph glyph-name="registered" unicode="&#xae;" horiz-adv-x="476" 
d="M352 693.5q53 -30.5 83.5 -82.5t30.5 -114t-30.5 -114.5t-83.5 -83t-115 -30.5t-114 30.5t-82.5 83t-30.5 114.5q0 61 30.5 113.5t83 83t113.5 30.5q62 0 115 -30.5zM321.5 347.5q38.5 23.5 61 63t22.5 85.5q0 45 -23 85t-61 64t-83 24q-46 0 -84.5 -24t-60.5 -63.5
t-22 -85.5t22 -85.5t60.5 -63t84.5 -23.5q45 0 83.5 23.5zM294 467q13 -8 21.5 -25t8.5 -38v-25h-59v25q0 18 -11 29t-31 11v-65h-59v242h59q47 0 74 -24t27 -66q0 -40 -30 -64zM223 500q20 0 31 9t11 22q0 14 -11 23t-31 9v-63z" />
    <glyph glyph-name="macron" unicode="&#xaf;" horiz-adv-x="374" 
d="M11 710h352v-120h-352v120z" />
    <glyph glyph-name="degree" unicode="&#xb0;" horiz-adv-x="292" 
d="M78.5 455.5q-31.5 18.5 -50 50t-18.5 67.5t18.5 67.5t50 50t68.5 18.5q36 0 67 -18.5t49.5 -50t18.5 -67.5t-18.5 -67.5t-49.5 -50t-67 -18.5q-37 0 -68.5 18.5zM185.5 532q16.5 18 16.5 41t-16.5 41t-38.5 18q-23 0 -40 -18t-17 -41t17 -41t40 -18q22 0 38.5 18z" />
    <glyph glyph-name="plusminus" unicode="&#xb1;" horiz-adv-x="524" 
d="M515 374h-180v-183h-140v183h-180v135h180v182h140v-182h180v-135zM9 140h500v-140h-500v140z" />
    <glyph glyph-name="acute" unicode="&#xb4;" horiz-adv-x="225" 
d="M63 721h159l-75 -141h-144z" />
    <glyph glyph-name="paragraph" unicode="&#xb6;" horiz-adv-x="634" 
d="M248 730h170v-766h-170v287q-65 0 -120 32t-87.5 87t-32.5 120t32.5 120t87.5 87t120 32v1zM616 730v-766h-170v766h170z" />
    <glyph glyph-name="periodcentered" unicode="&#xb7;" horiz-adv-x="220" 
d="M39.5 274.5q-29.5 29.5 -29.5 70.5t29.5 70.5t71.5 29.5q41 0 70 -29.5t29 -70.5t-29 -70.5t-70 -29.5q-42 0 -71.5 29.5z" />
    <glyph glyph-name="cedilla" unicode="&#xb8;" horiz-adv-x="225" 
d="M161 -174h-159l75 141h144z" />
    <glyph glyph-name="guillemotright" unicode="&#xbb;" horiz-adv-x="494" 
d="M337 317l-110 -193h152l110 193l-110 193h-152zM120 317l-110 -193h152l110 193l-110 193h-152z" />
    <glyph glyph-name="questiondown" unicode="&#xbf;" horiz-adv-x="542" 
d="M38.5 177.5q32.5 58.5 88.5 94.5t123 41q-31 8 -51 34t-20 59q0 39 28 66.5t67 27.5t67 -27.5t28 -66.5q0 -32 -19 -57.5t-49 -34.5h57v-165h-27q-58 0 -80 -4t-36 -15q-18 -14 -28.5 -34.5t-10.5 -44.5q0 -40 28 -69t67 -29t67 29t28 69h170q0 -72 -35.5 -133
t-96.5 -96.5t-133 -35.5t-133 35.5t-96.5 96.5t-35.5 133q0 68 32.5 126.5z" />
    <glyph glyph-name="Agrave" unicode="&#xc0;" horiz-adv-x="517" 
d="M74 480.5q62 106.5 172 158t256 51.5v-690h-170v100h-150v-100h-170v214q0 160 62 266.5zM332 265v226q-132 -52 -148 -226h148zM259 720l-75 141h159l60 -141h-144z" />
    <glyph glyph-name="Aacute" unicode="&#xc1;" horiz-adv-x="517" 
d="M74 480.5q62 106.5 172 158t256 51.5v-690h-170v100h-150v-100h-170v214q0 160 62 266.5zM332 265v226q-132 -52 -148 -226h148zM317 861h159l-75 -141h-144z" />
    <glyph glyph-name="Acircumflex" unicode="&#xc2;" horiz-adv-x="517" 
d="M74 480.5q62 106.5 172 158t256 51.5v-690h-170v100h-150v-100h-170v214q0 160 62 266.5zM332 265v226q-132 -52 -148 -226h148zM505 820v-120l-176 90l-176 -90v120l176 90z" />
    <glyph glyph-name="Atilde" unicode="&#xc3;" horiz-adv-x="517" 
d="M74 480.5q62 106.5 172 158t256 51.5v-690h-170v100h-150v-100h-170v214q0 160 62 266.5zM332 265v226q-132 -52 -148 -226h148zM350 737.5q-17 7.5 -37 21.5q-3 2 -12 7.5t-16.5 8t-13.5 2.5q-17 0 -29 -11.5t-12 -27.5h-95q0 36 18 68t49.5 51.5t68.5 19.5
q26 0 42.5 -7.5t37.5 -21.5q13 -10 21.5 -14t18.5 -4q16 0 26.5 11t10.5 28h94q0 -36 -17.5 -68t-47.5 -51.5t-66 -19.5q-24 0 -41 7.5z" />
    <glyph glyph-name="Adieresis" unicode="&#xc4;" horiz-adv-x="517" 
d="M74 480.5q62 106.5 172 158t256 51.5v-690h-170v100h-150v-100h-170v214q0 160 62 266.5zM332 265v226q-132 -52 -148 -226h148zM172.5 742.5q-23.5 22.5 -23.5 54.5t23.5 55t55.5 23q31 0 53.5 -23t22.5 -55t-22.5 -54.5t-53.5 -22.5q-32 0 -55.5 22.5zM376.5 742.5
q-22.5 22.5 -22.5 54.5t22.5 55t54.5 23t55 -23t23 -55t-23 -54.5t-55 -22.5t-54.5 22.5z" />
    <glyph glyph-name="Aring" unicode="&#xc5;" horiz-adv-x="517" 
d="M74 480.5q62 106.5 172 158t256 51.5v-690h-170v100h-150v-100h-170v214q0 160 62 266.5zM332 265v226q-132 -52 -148 -226h148zM258 749.5q-29 29.5 -29 70.5q0 42 29 71t72 29q41 0 70 -29.5t29 -70.5t-29 -70.5t-70 -29.5q-43 0 -72 29.5zM357.5 790.5
q11.5 12.5 11.5 29.5t-11.5 29.5t-27.5 12.5q-17 0 -29 -12.5t-12 -29.5t12 -29.5t29 -12.5q16 0 27.5 12.5z" />
    <glyph glyph-name="AE" unicode="&#xc6;" horiz-adv-x="779" 
d="M502 530v-100h177v-165h-177v-100h262v-165h-432v100h-150v-100h-170v214q0 159 61.5 265.5t171 158t254.5 52.5h265v-160h-262zM332 265v226q-132 -52 -148 -226h148z" />
    <glyph glyph-name="Ccedilla" unicode="&#xc7;" horiz-adv-x="406" 
d="M260 12q-72 19 -130 67.5t-91 118t-33 147.5q0 79 33 148.5t91 118t131 66.5q47 12 120 12h10v-165h-10q-81 0 -129 -33q-34 -23 -55 -63t-21 -84t21 -84t55 -63q48 -33 129 -33h10v-165h-10q-73 0 -121 12zM330 -155h-159l75 141h144z" />
    <glyph glyph-name="Egrave" unicode="&#xc8;" horiz-adv-x="465" 
d="M185 525v-100h180v-160h-180v-100h265v-165h-435v690h435v-165h-265zM163 720l-75 141h159l60 -141h-144z" />
    <glyph glyph-name="Eacute" unicode="&#xc9;" horiz-adv-x="465" 
d="M185 525v-100h180v-160h-180v-100h265v-165h-435v690h435v-165h-265zM221 861h159l-75 -141h-144z" />
    <glyph glyph-name="Ecircumflex" unicode="&#xca;" horiz-adv-x="465" 
d="M185 525v-100h180v-160h-180v-100h265v-165h-435v690h435v-165h-265zM409 820v-120l-176 90l-176 -90v120l176 90z" />
    <glyph glyph-name="Edieresis" unicode="&#xcb;" horiz-adv-x="465" 
d="M185 525v-100h180v-160h-180v-100h265v-165h-435v690h435v-165h-265zM76.5 742.5q-23.5 22.5 -23.5 54.5t23.5 55t55.5 23q31 0 53.5 -23t22.5 -55t-22.5 -54.5t-53.5 -22.5q-32 0 -55.5 22.5zM280.5 742.5q-22.5 22.5 -22.5 54.5t22.5 55t54.5 23t55 -23t23 -55
t-23 -54.5t-55 -22.5t-54.5 22.5z" />
    <glyph glyph-name="Igrave" unicode="&#xcc;" horiz-adv-x="200" 
d="M15 690h170v-690h-170v690zM30 720l-75 141h159l60 -141h-144z" />
    <glyph glyph-name="Iacute" unicode="&#xcd;" horiz-adv-x="200" 
d="M15 690h170v-690h-170v690zM88 861h159l-75 -141h-144z" />
    <glyph glyph-name="Icircumflex" unicode="&#xce;" horiz-adv-x="200" 
d="M15 690h170v-690h-170v690zM246 810v-120l-146 90l-146 -90v120l146 90z" />
    <glyph glyph-name="Idieresis" unicode="&#xcf;" horiz-adv-x="200" 
d="M15 690h170v-690h-170v690zM-46.5 742.5q-23.5 22.5 -23.5 54.5t23.5 55t55.5 23q31 0 53.5 -23t22.5 -55t-22.5 -54.5t-53.5 -22.5q-32 0 -55.5 22.5zM137.5 742.5q-22.5 22.5 -22.5 54.5t22.5 55t54.5 23t55 -23t23 -55t-23 -54.5t-55 -22.5t-54.5 22.5z" />
    <glyph glyph-name="Eth" unicode="&#xd0;" horiz-adv-x="561" 
d="M410.5 624q64.5 -46 104.5 -119t40 -161q0 -77 -30.5 -142t-82.5 -111t-116 -68q-67 -23 -191 -23h-120v690h120q94 0 139 -8q72 -12 136.5 -58zM293 189.5q45 24.5 68.5 65.5t23.5 90t-23.5 90t-68.5 65.5t-108 24.5v-105h95v-150h-95v-105q63 0 108 24.5z" />
    <glyph glyph-name="Ntilde" unicode="&#xd1;" horiz-adv-x="525" 
d="M510 690v-690h-170v214q0 215 -155 266v-480h-170v690q101 0 183 -30.5t142 -88.5v119h170zM286 737.5q-17 7.5 -37 21.5q-3 2 -12 7.5t-16.5 8t-13.5 2.5q-17 0 -29 -11.5t-12 -27.5h-95q0 36 18 68t49.5 51.5t68.5 19.5q26 0 42.5 -7.5t37.5 -21.5q13 -10 21.5 -14
t18.5 -4q16 0 26.5 11t10.5 28h94q0 -36 -17.5 -68t-47.5 -51.5t-66 -19.5q-24 0 -41 7.5z" />
    <glyph glyph-name="Ograve" unicode="&#xd2;" 
d="M184.5 33q-82.5 48 -130.5 131t-48 182q0 98 48 180.5t130.5 130.5t181.5 48t182 -48t131.5 -130.5t48.5 -180.5q0 -99 -48.5 -182t-131.5 -131t-182 -48t-181.5 48zM462 177q44 26 70 70.5t26 96.5t-26 96.5t-70 71.5t-95 27q-52 0 -96 -26.5t-69.5 -71.5t-25.5 -97
t25.5 -96.5t69.5 -70.5t96 -26q51 0 95 26zM296 735l-75 141h159l60 -141h-144z" />
    <glyph glyph-name="Oacute" unicode="&#xd3;" 
d="M184.5 33q-82.5 48 -130.5 131t-48 182q0 98 48 180.5t130.5 130.5t181.5 48t182 -48t131.5 -130.5t48.5 -180.5q0 -99 -48.5 -182t-131.5 -131t-182 -48t-181.5 48zM462 177q44 26 70 70.5t26 96.5t-26 96.5t-70 71.5t-95 27q-52 0 -96 -26.5t-69.5 -71.5t-25.5 -97
t25.5 -96.5t69.5 -70.5t96 -26q51 0 95 26zM354 876h159l-75 -141h-144z" />
    <glyph glyph-name="Ocircumflex" unicode="&#xd4;" 
d="M184.5 33q-82.5 48 -130.5 131t-48 182q0 98 48 180.5t130.5 130.5t181.5 48t182 -48t131.5 -130.5t48.5 -180.5q0 -99 -48.5 -182t-131.5 -131t-182 -48t-181.5 48zM462 177q44 26 70 70.5t26 96.5t-26 96.5t-70 71.5t-95 27q-52 0 -96 -26.5t-69.5 -71.5t-25.5 -97
t25.5 -96.5t69.5 -70.5t96 -26q51 0 95 26zM542 835v-120l-176 90l-176 -90v120l176 90z" />
    <glyph glyph-name="Otilde" unicode="&#xd5;" 
d="M184.5 33q-82.5 48 -130.5 131t-48 182q0 98 48 180.5t130.5 130.5t181.5 48t182 -48t131.5 -130.5t48.5 -180.5q0 -99 -48.5 -182t-131.5 -131t-182 -48t-181.5 48zM462 177q44 26 70 70.5t26 96.5t-26 96.5t-70 71.5t-95 27q-52 0 -96 -26.5t-69.5 -71.5t-25.5 -97
t25.5 -96.5t69.5 -70.5t96 -26q51 0 95 26zM387 752.5q-17 7.5 -37 21.5q-3 2 -12 7.5t-16.5 8t-13.5 2.5q-17 0 -29 -11.5t-12 -27.5h-95q0 36 18 68t49.5 51.5t68.5 19.5q26 0 42.5 -7.5t37.5 -21.5q13 -10 21.5 -14t18.5 -4q16 0 26.5 11t10.5 28h94q0 -36 -17.5 -68
t-47.5 -51.5t-66 -19.5q-24 0 -41 7.5z" />
    <glyph glyph-name="Odieresis" unicode="&#xd6;" 
d="M184.5 33q-82.5 48 -130.5 131t-48 182q0 98 48 180.5t130.5 130.5t181.5 48t182 -48t131.5 -130.5t48.5 -180.5q0 -99 -48.5 -182t-131.5 -131t-182 -48t-181.5 48zM462 177q44 26 70 70.5t26 96.5t-26 96.5t-70 71.5t-95 27q-52 0 -96 -26.5t-69.5 -71.5t-25.5 -97
t25.5 -96.5t69.5 -70.5t96 -26q51 0 95 26zM209.5 757.5q-23.5 22.5 -23.5 54.5t23.5 55t55.5 23q31 0 53.5 -23t22.5 -55t-22.5 -54.5t-53.5 -22.5q-32 0 -55.5 22.5zM413.5 757.5q-22.5 22.5 -22.5 54.5t22.5 55t54.5 23t55 -23t23 -55t-23 -54.5t-55 -22.5t-54.5 22.5z
" />
    <glyph glyph-name="multiply" unicode="&#xd7;" horiz-adv-x="466" 
d="M457.045 465.188l-127.276 -127.276l129.398 -129.397l-98.9932 -98.9932l-129.398 129.397l-127.276 -127.276l-95.457 95.457l127.276 127.277l-128.69 128.69l98.9922 98.9932l128.691 -128.691l127.276 127.277z" />
    <glyph glyph-name="Oslash" unicode="&#xd8;" 
d="M184.5 33q-82.5 48 -130.5 131t-48 182q0 98 48 180.5t130.5 130.5t181.5 48t182 -48t131.5 -130.5t48.5 -180.5q0 -99 -48.5 -182t-131.5 -131t-182 -48t-181.5 48zM462 177q44 26 70 70.5t26 96.5t-26 96.5t-70 71.5t-95 27q-52 0 -96 -26.5t-69.5 -71.5t-25.5 -97
t25.5 -96.5t69.5 -70.5t96 -26q51 0 95 26zM56 57l531 642l80 -67l-530 -641z" />
    <glyph glyph-name="Ugrave" unicode="&#xd9;" horiz-adv-x="526" 
d="M143.5 19q-56.5 29 -92.5 90t-36 151v430h170v-430q0 -51 18 -78t60 -27t60 27t18 78v430h170v-430q0 -90 -36 -151t-92.5 -90t-119.5 -29t-119.5 29zM193 720l-75 141h159l60 -141h-144z" />
    <glyph glyph-name="Uacute" unicode="&#xda;" horiz-adv-x="526" 
d="M143.5 19q-56.5 29 -92.5 90t-36 151v430h170v-430q0 -51 18 -78t60 -27t60 27t18 78v430h170v-430q0 -90 -36 -151t-92.5 -90t-119.5 -29t-119.5 29zM251 861h159l-75 -141h-144z" />
    <glyph glyph-name="Ucircumflex" unicode="&#xdb;" horiz-adv-x="526" 
d="M143.5 19q-56.5 29 -92.5 90t-36 151v430h170v-430q0 -51 18 -78t60 -27t60 27t18 78v430h170v-430q0 -90 -36 -151t-92.5 -90t-119.5 -29t-119.5 29zM439 820v-120l-176 90l-176 -90v120l176 90z" />
    <glyph glyph-name="Udieresis" unicode="&#xdc;" horiz-adv-x="526" 
d="M143.5 19q-56.5 29 -92.5 90t-36 151v430h170v-430q0 -51 18 -78t60 -27t60 27t18 78v430h170v-430q0 -90 -36 -151t-92.5 -90t-119.5 -29t-119.5 29zM106.5 742.5q-23.5 22.5 -23.5 54.5t23.5 55t55.5 23q31 0 53.5 -23t22.5 -55t-22.5 -54.5t-53.5 -22.5
q-32 0 -55.5 22.5zM310.5 742.5q-22.5 22.5 -22.5 54.5t22.5 55t54.5 23t55 -23t23 -55t-23 -54.5t-55 -22.5t-54.5 22.5z" />
    <glyph glyph-name="Yacute" unicode="&#xdd;" horiz-adv-x="550" 
d="M190 340l-185 350h180l90 -170l90 170h180l-185 -350v-340h-170v340zM263 861h159l-75 -141h-144z" />
    <glyph glyph-name="Thorn" unicode="&#xde;" horiz-adv-x="525" 
d="M388 565q58 -31 94.5 -88t36.5 -130t-36.5 -130t-94.5 -88t-121 -32h-82v-97h-170v690h170v-93h82q63 -1 121 -32zM326.5 286.5q22.5 22.5 22.5 60.5t-22.5 60.5t-59.5 24.5h-82v-170h82q37 2 59.5 24.5z" />
    <glyph glyph-name="germandbls" unicode="&#xdf;" horiz-adv-x="582" 
d="M560 288.5q17 -34.5 17 -79.5q0 -60 -28.5 -107.5t-76.5 -74.5t-106 -27h-131v165h111q30 0 45.5 12.5t15.5 31.5q0 16 -9.5 25.5t-21.5 17t-16 10.5l-103 66q-26 17 -26 41q0 12 4 21l4 9l63 131h-117v-530h-170v690h534l-132 -275q64 -39 92 -63q34 -29 51 -63.5z" />
    <glyph glyph-name="agrave" unicode="&#xe0;" horiz-adv-x="517" 
d="M74 480.5q62 106.5 172 158t256 51.5v-690h-170v100h-150v-100h-170v214q0 160 62 266.5zM332 265v226q-132 -52 -148 -226h148zM259 720l-75 141h159l60 -141h-144z" />
    <glyph glyph-name="aacute" unicode="&#xe1;" horiz-adv-x="517" 
d="M74 480.5q62 106.5 172 158t256 51.5v-690h-170v100h-150v-100h-170v214q0 160 62 266.5zM332 265v226q-132 -52 -148 -226h148zM317 861h159l-75 -141h-144z" />
    <glyph glyph-name="acircumflex" unicode="&#xe2;" horiz-adv-x="517" 
d="M74 480.5q62 106.5 172 158t256 51.5v-690h-170v100h-150v-100h-170v214q0 160 62 266.5zM332 265v226q-132 -52 -148 -226h148zM505 820v-120l-176 90l-176 -90v120l176 90z" />
    <glyph glyph-name="atilde" unicode="&#xe3;" horiz-adv-x="517" 
d="M74 480.5q62 106.5 172 158t256 51.5v-690h-170v100h-150v-100h-170v214q0 160 62 266.5zM332 265v226q-132 -52 -148 -226h148zM350 737.5q-17 7.5 -37 21.5q-3 2 -12 7.5t-16.5 8t-13.5 2.5q-17 0 -29 -11.5t-12 -27.5h-95q0 36 18 68t49.5 51.5t68.5 19.5
q26 0 42.5 -7.5t37.5 -21.5q13 -10 21.5 -14t18.5 -4q16 0 26.5 11t10.5 28h94q0 -36 -17.5 -68t-47.5 -51.5t-66 -19.5q-24 0 -41 7.5z" />
    <glyph glyph-name="adieresis" unicode="&#xe4;" horiz-adv-x="517" 
d="M74 480.5q62 106.5 172 158t256 51.5v-690h-170v100h-150v-100h-170v214q0 160 62 266.5zM332 265v226q-132 -52 -148 -226h148zM172.5 742.5q-23.5 22.5 -23.5 54.5t23.5 55t55.5 23q31 0 53.5 -23t22.5 -55t-22.5 -54.5t-53.5 -22.5q-32 0 -55.5 22.5zM376.5 742.5
q-22.5 22.5 -22.5 54.5t22.5 55t54.5 23t55 -23t23 -55t-23 -54.5t-55 -22.5t-54.5 22.5z" />
    <glyph glyph-name="aring" unicode="&#xe5;" horiz-adv-x="517" 
d="M74 480.5q62 106.5 172 158t256 51.5v-690h-170v100h-150v-100h-170v214q0 160 62 266.5zM332 265v226q-132 -52 -148 -226h148zM258 749.5q-29 29.5 -29 70.5q0 42 29 71t72 29q41 0 70 -29.5t29 -70.5t-29 -70.5t-70 -29.5q-43 0 -72 29.5zM357.5 790.5
q11.5 12.5 11.5 29.5t-11.5 29.5t-27.5 12.5q-17 0 -29 -12.5t-12 -29.5t12 -29.5t29 -12.5q16 0 27.5 12.5z" />
    <glyph glyph-name="ae" unicode="&#xe6;" horiz-adv-x="779" 
d="M502 530v-100h177v-165h-177v-100h262v-165h-432v100h-150v-100h-170v214q0 159 61.5 265.5t171 158t254.5 52.5h265v-160h-262zM332 265v226q-132 -52 -148 -226h148z" />
    <glyph glyph-name="ccedilla" unicode="&#xe7;" horiz-adv-x="406" 
d="M260 12q-72 19 -130 67.5t-91 118t-33 147.5q0 79 33 148.5t91 118t131 66.5q47 12 120 12h10v-165h-10q-81 0 -129 -33q-34 -23 -55 -63t-21 -84t21 -84t55 -63q48 -33 129 -33h10v-165h-10q-73 0 -121 12zM330 -155h-159l75 141h144z" />
    <glyph glyph-name="egrave" unicode="&#xe8;" horiz-adv-x="465" 
d="M185 525v-100h180v-160h-180v-100h265v-165h-435v690h435v-165h-265zM163 720l-75 141h159l60 -141h-144z" />
    <glyph glyph-name="eacute" unicode="&#xe9;" horiz-adv-x="465" 
d="M185 525v-100h180v-160h-180v-100h265v-165h-435v690h435v-165h-265zM221 861h159l-75 -141h-144z" />
    <glyph glyph-name="ecircumflex" unicode="&#xea;" horiz-adv-x="465" 
d="M185 525v-100h180v-160h-180v-100h265v-165h-435v690h435v-165h-265zM409 820v-120l-176 90l-176 -90v120l176 90z" />
    <glyph glyph-name="edieresis" unicode="&#xeb;" horiz-adv-x="465" 
d="M185 525v-100h180v-160h-180v-100h265v-165h-435v690h435v-165h-265zM76.5 742.5q-23.5 22.5 -23.5 54.5t23.5 55t55.5 23q31 0 53.5 -23t22.5 -55t-22.5 -54.5t-53.5 -22.5q-32 0 -55.5 22.5zM280.5 742.5q-22.5 22.5 -22.5 54.5t22.5 55t54.5 23t55 -23t23 -55
t-23 -54.5t-55 -22.5t-54.5 22.5z" />
    <glyph glyph-name="igrave" unicode="&#xec;" horiz-adv-x="200" 
d="M15 690h170v-690h-170v690zM30 720l-75 141h159l60 -141h-144z" />
    <glyph glyph-name="iacute" unicode="&#xed;" horiz-adv-x="200" 
d="M15 690h170v-690h-170v690zM88 861h159l-75 -141h-144z" />
    <glyph glyph-name="icircumflex" unicode="&#xee;" horiz-adv-x="200" 
d="M15 690h170v-690h-170v690zM246 810v-120l-146 90l-146 -90v120l146 90z" />
    <glyph glyph-name="idieresis" unicode="&#xef;" horiz-adv-x="200" 
d="M15 690h170v-690h-170v690zM-46.5 742.5q-23.5 22.5 -23.5 54.5t23.5 55t55.5 23q31 0 53.5 -23t22.5 -55t-22.5 -54.5t-53.5 -22.5q-32 0 -55.5 22.5zM137.5 742.5q-22.5 22.5 -22.5 54.5t22.5 55t54.5 23t55 -23t23 -55t-23 -54.5t-55 -22.5t-54.5 22.5z" />
    <glyph glyph-name="eth" unicode="&#xf0;" horiz-adv-x="561" 
d="M410.5 624q64.5 -46 104.5 -119t40 -161q0 -77 -30.5 -142t-82.5 -111t-116 -68q-67 -23 -191 -23h-120v690h120q94 0 139 -8q72 -12 136.5 -58zM293 189.5q45 24.5 68.5 65.5t23.5 90t-23.5 90t-68.5 65.5t-108 24.5v-105h95v-150h-95v-105q63 0 108 24.5z" />
    <glyph glyph-name="ntilde" unicode="&#xf1;" horiz-adv-x="525" 
d="M510 690v-690h-170v214q0 215 -155 266v-480h-170v690q101 0 183 -30.5t142 -88.5v119h170zM286 737.5q-17 7.5 -37 21.5q-3 2 -12 7.5t-16.5 8t-13.5 2.5q-17 0 -29 -11.5t-12 -27.5h-95q0 36 18 68t49.5 51.5t68.5 19.5q26 0 42.5 -7.5t37.5 -21.5q13 -10 21.5 -14
t18.5 -4q16 0 26.5 11t10.5 28h94q0 -36 -17.5 -68t-47.5 -51.5t-66 -19.5q-24 0 -41 7.5z" />
    <glyph glyph-name="ograve" unicode="&#xf2;" 
d="M184.5 33q-82.5 48 -130.5 131t-48 182q0 98 48 180.5t130.5 130.5t181.5 48t182 -48t131.5 -130.5t48.5 -180.5q0 -99 -48.5 -182t-131.5 -131t-182 -48t-181.5 48zM462 177q44 26 70 70.5t26 96.5t-26 96.5t-70 71.5t-95 27q-52 0 -96 -26.5t-69.5 -71.5t-25.5 -97
t25.5 -96.5t69.5 -70.5t96 -26q51 0 95 26zM296 735l-75 141h159l60 -141h-144z" />
    <glyph glyph-name="oacute" unicode="&#xf3;" 
d="M184.5 33q-82.5 48 -130.5 131t-48 182q0 98 48 180.5t130.5 130.5t181.5 48t182 -48t131.5 -130.5t48.5 -180.5q0 -99 -48.5 -182t-131.5 -131t-182 -48t-181.5 48zM462 177q44 26 70 70.5t26 96.5t-26 96.5t-70 71.5t-95 27q-52 0 -96 -26.5t-69.5 -71.5t-25.5 -97
t25.5 -96.5t69.5 -70.5t96 -26q51 0 95 26zM354 876h159l-75 -141h-144z" />
    <glyph glyph-name="ocircumflex" unicode="&#xf4;" 
d="M184.5 33q-82.5 48 -130.5 131t-48 182q0 98 48 180.5t130.5 130.5t181.5 48t182 -48t131.5 -130.5t48.5 -180.5q0 -99 -48.5 -182t-131.5 -131t-182 -48t-181.5 48zM462 177q44 26 70 70.5t26 96.5t-26 96.5t-70 71.5t-95 27q-52 0 -96 -26.5t-69.5 -71.5t-25.5 -97
t25.5 -96.5t69.5 -70.5t96 -26q51 0 95 26zM542 835v-120l-176 90l-176 -90v120l176 90z" />
    <glyph glyph-name="otilde" unicode="&#xf5;" 
d="M184.5 33q-82.5 48 -130.5 131t-48 182q0 98 48 180.5t130.5 130.5t181.5 48t182 -48t131.5 -130.5t48.5 -180.5q0 -99 -48.5 -182t-131.5 -131t-182 -48t-181.5 48zM462 177q44 26 70 70.5t26 96.5t-26 96.5t-70 71.5t-95 27q-52 0 -96 -26.5t-69.5 -71.5t-25.5 -97
t25.5 -96.5t69.5 -70.5t96 -26q51 0 95 26zM387 752.5q-17 7.5 -37 21.5q-3 2 -12 7.5t-16.5 8t-13.5 2.5q-17 0 -29 -11.5t-12 -27.5h-95q0 36 18 68t49.5 51.5t68.5 19.5q26 0 42.5 -7.5t37.5 -21.5q13 -10 21.5 -14t18.5 -4q16 0 26.5 11t10.5 28h94q0 -36 -17.5 -68
t-47.5 -51.5t-66 -19.5q-24 0 -41 7.5z" />
    <glyph glyph-name="odieresis" unicode="&#xf6;" 
d="M184.5 33q-82.5 48 -130.5 131t-48 182q0 98 48 180.5t130.5 130.5t181.5 48t182 -48t131.5 -130.5t48.5 -180.5q0 -99 -48.5 -182t-131.5 -131t-182 -48t-181.5 48zM462 177q44 26 70 70.5t26 96.5t-26 96.5t-70 71.5t-95 27q-52 0 -96 -26.5t-69.5 -71.5t-25.5 -97
t25.5 -96.5t69.5 -70.5t96 -26q51 0 95 26zM209.5 757.5q-23.5 22.5 -23.5 54.5t23.5 55t55.5 23q31 0 53.5 -23t22.5 -55t-22.5 -54.5t-53.5 -22.5q-32 0 -55.5 22.5zM413.5 757.5q-22.5 22.5 -22.5 54.5t22.5 55t54.5 23t55 -23t23 -55t-23 -54.5t-55 -22.5t-54.5 22.5z
" />
    <glyph glyph-name="divide" unicode="&#xf7;" horiz-adv-x="518" 
d="M192 502.5q-28 27.5 -28 66.5t28 67t67 28q38 0 66 -28t28 -67t-28 -66.5t-66 -27.5q-39 0 -67 27.5zM8 415h500v-140h-500v140zM192 53.5q-28 27.5 -28 66.5t28 67t67 28q38 0 66 -28t28 -67t-28 -66.5t-66 -27.5q-39 0 -67 27.5z" />
    <glyph glyph-name="oslash" unicode="&#xf8;" 
d="M184.5 33q-82.5 48 -130.5 131t-48 182q0 98 48 180.5t130.5 130.5t181.5 48t182 -48t131.5 -130.5t48.5 -180.5q0 -99 -48.5 -182t-131.5 -131t-182 -48t-181.5 48zM462 177q44 26 70 70.5t26 96.5t-26 96.5t-70 71.5t-95 27q-52 0 -96 -26.5t-69.5 -71.5t-25.5 -97
t25.5 -96.5t69.5 -70.5t96 -26q51 0 95 26zM56 57l531 642l80 -67l-530 -641z" />
    <glyph glyph-name="ugrave" unicode="&#xf9;" horiz-adv-x="526" 
d="M143.5 19q-56.5 29 -92.5 90t-36 151v430h170v-430q0 -51 18 -78t60 -27t60 27t18 78v430h170v-430q0 -90 -36 -151t-92.5 -90t-119.5 -29t-119.5 29zM193 720l-75 141h159l60 -141h-144z" />
    <glyph glyph-name="uacute" unicode="&#xfa;" horiz-adv-x="526" 
d="M143.5 19q-56.5 29 -92.5 90t-36 151v430h170v-430q0 -51 18 -78t60 -27t60 27t18 78v430h170v-430q0 -90 -36 -151t-92.5 -90t-119.5 -29t-119.5 29zM251 861h159l-75 -141h-144z" />
    <glyph glyph-name="ucircumflex" unicode="&#xfb;" horiz-adv-x="526" 
d="M143.5 19q-56.5 29 -92.5 90t-36 151v430h170v-430q0 -51 18 -78t60 -27t60 27t18 78v430h170v-430q0 -90 -36 -151t-92.5 -90t-119.5 -29t-119.5 29zM439 820v-120l-176 90l-176 -90v120l176 90z" />
    <glyph glyph-name="udieresis" unicode="&#xfc;" horiz-adv-x="526" 
d="M143.5 19q-56.5 29 -92.5 90t-36 151v430h170v-430q0 -51 18 -78t60 -27t60 27t18 78v430h170v-430q0 -90 -36 -151t-92.5 -90t-119.5 -29t-119.5 29zM106.5 742.5q-23.5 22.5 -23.5 54.5t23.5 55t55.5 23q31 0 53.5 -23t22.5 -55t-22.5 -54.5t-53.5 -22.5
q-32 0 -55.5 22.5zM310.5 742.5q-22.5 22.5 -22.5 54.5t22.5 55t54.5 23t55 -23t23 -55t-23 -54.5t-55 -22.5t-54.5 22.5z" />
    <glyph glyph-name="yacute" unicode="&#xfd;" horiz-adv-x="550" 
d="M190 340l-185 350h180l90 -170l90 170h180l-185 -350v-340h-170v340zM263 861h159l-75 -141h-144z" />
    <glyph glyph-name="thorn" unicode="&#xfe;" horiz-adv-x="525" 
d="M388 565q58 -31 94.5 -88t36.5 -130t-36.5 -130t-94.5 -88t-121 -32h-82v-97h-170v690h170v-93h82q63 -1 121 -32zM326.5 286.5q22.5 22.5 22.5 60.5t-22.5 60.5t-59.5 24.5h-82v-170h82q37 2 59.5 24.5z" />
    <glyph glyph-name="ydieresis" unicode="&#xff;" horiz-adv-x="550" 
d="M190 340l-185 350h180l90 -170l90 170h180l-185 -350v-340h-170v340zM118.5 742.5q-23.5 22.5 -23.5 54.5t23.5 55t55.5 23q31 0 53.5 -23t22.5 -55t-22.5 -54.5t-53.5 -22.5q-32 0 -55.5 22.5zM322.5 742.5q-22.5 22.5 -22.5 54.5t22.5 55t54.5 23t55 -23t23 -55
t-23 -54.5t-55 -22.5t-54.5 22.5z" />
    <glyph glyph-name="Amacron" unicode="&#x100;" horiz-adv-x="517" 
d="M74 480.5q62 106.5 172 158t256 51.5v-690h-170v100h-150v-100h-170v214q0 160 62 266.5zM332 265v226q-132 -52 -148 -226h148zM153 850h352v-120h-352v120z" />
    <glyph glyph-name="amacron" unicode="&#x101;" horiz-adv-x="517" 
d="M74 480.5q62 106.5 172 158t256 51.5v-690h-170v100h-150v-100h-170v214q0 160 62 266.5zM332 265v226q-132 -52 -148 -226h148zM153 850h352v-120h-352v120z" />
    <glyph glyph-name="Abreve" unicode="&#x102;" horiz-adv-x="517" 
d="M74 480.5q62 106.5 172 158t256 51.5v-690h-170v100h-150v-100h-170v214q0 160 62 266.5zM332 265v226q-132 -52 -148 -226h148zM482 861v-9q0 -38 -22 -70.5t-57 -52t-74 -19.5t-74.5 19.5t-57.5 52t-22 70.5v9h101v-9q0 -18 14.5 -32.5t38.5 -14.5t38.5 14.5t14.5 32.5
v9h100z" />
    <glyph glyph-name="abreve" unicode="&#x103;" horiz-adv-x="517" 
d="M74 480.5q62 106.5 172 158t256 51.5v-690h-170v100h-150v-100h-170v214q0 160 62 266.5zM332 265v226q-132 -52 -148 -226h148zM482 861v-9q0 -38 -22 -70.5t-57 -52t-74 -19.5t-74.5 19.5t-57.5 52t-22 70.5v9h101v-9q0 -18 14.5 -32.5t38.5 -14.5t38.5 14.5t14.5 32.5
v9h100z" />
    <glyph glyph-name="Aogonek" unicode="&#x104;" horiz-adv-x="517" 
d="M74 480.5q62 106.5 172 158t256 51.5v-690h-170v100h-150v-100h-170v214q0 160 62 266.5zM332 265v226q-132 -52 -148 -226h148zM374 -146q-42 44 -42 126h170v-170q-86 0 -128 44z" />
    <glyph glyph-name="aogonek" unicode="&#x105;" horiz-adv-x="517" 
d="M74 480.5q62 106.5 172 158t256 51.5v-690h-170v100h-150v-100h-170v214q0 160 62 266.5zM332 265v226q-132 -52 -148 -226h148zM374 -146q-42 44 -42 126h170v-170q-86 0 -128 44z" />
    <glyph glyph-name="Cacute" unicode="&#x106;" horiz-adv-x="406" 
d="M260 12q-72 19 -130 67.5t-91 118t-33 147.5q0 79 33 148.5t91 118t131 66.5q47 12 120 12h10v-165h-10q-81 0 -129 -33q-34 -23 -55 -63t-21 -84t21 -84t55 -63q48 -33 129 -33h10v-165h-10q-73 0 -121 12zM206 861h159l-75 -141h-144z" />
    <glyph glyph-name="cacute" unicode="&#x107;" horiz-adv-x="406" 
d="M260 12q-72 19 -130 67.5t-91 118t-33 147.5q0 79 33 148.5t91 118t131 66.5q47 12 120 12h10v-165h-10q-81 0 -129 -33q-34 -23 -55 -63t-21 -84t21 -84t55 -63q48 -33 129 -33h10v-165h-10q-73 0 -121 12zM206 861h159l-75 -141h-144z" />
    <glyph glyph-name="Cdotaccent" unicode="&#x10a;" horiz-adv-x="406" 
d="M260 12q-72 19 -130 67.5t-91 118t-33 147.5q0 79 33 148.5t91 118t131 66.5q47 12 120 12h10v-165h-10q-81 0 -129 -33q-34 -23 -55 -63t-21 -84t21 -84t55 -63q48 -33 129 -33h10v-165h-10q-73 0 -121 12zM158 745q-25 25 -25 60t25 60t60 25t60 -25t25 -60t-25 -60
t-60 -25t-60 25z" />
    <glyph glyph-name="cdotaccent" unicode="&#x10b;" horiz-adv-x="406" 
d="M260 12q-72 19 -130 67.5t-91 118t-33 147.5q0 79 33 148.5t91 118t131 66.5q47 12 120 12h10v-165h-10q-81 0 -129 -33q-34 -23 -55 -63t-21 -84t21 -84t55 -63q48 -33 129 -33h10v-165h-10q-73 0 -121 12zM158 745q-25 25 -25 60t25 60t60 25t60 -25t25 -60t-25 -60
t-60 -25t-60 25z" />
    <glyph glyph-name="Ccaron" unicode="&#x10c;" horiz-adv-x="406" 
d="M260 12q-72 19 -130 67.5t-91 118t-33 147.5q0 79 33 148.5t91 118t131 66.5q47 12 120 12h10v-165h-10q-81 0 -129 -33q-34 -23 -55 -63t-21 -84t21 -84t55 -63q48 -33 129 -33h10v-165h-10q-73 0 -121 12zM411 880l-125 -150h-136l-125 150h136l57 -68l57 68h136z" />
    <glyph glyph-name="ccaron" unicode="&#x10d;" horiz-adv-x="406" 
d="M260 12q-72 19 -130 67.5t-91 118t-33 147.5q0 79 33 148.5t91 118t131 66.5q47 12 120 12h10v-165h-10q-81 0 -129 -33q-34 -23 -55 -63t-21 -84t21 -84t55 -63q48 -33 129 -33h10v-165h-10q-73 0 -121 12zM411 880l-125 -150h-136l-125 150h136l57 -68l57 68h136z" />
    <glyph glyph-name="Dcaron" unicode="&#x10e;" horiz-adv-x="561" 
d="M15 690h120q94 0 139 -8q72 -12 136.5 -58t104.5 -119t40 -161q0 -77 -30.5 -142t-82.5 -111t-116 -68q-67 -23 -191 -23h-120v690zM293 189.5q45 24.5 68.5 65.5t23.5 90t-23.5 90t-68.5 65.5t-108 24.5v-360q63 0 108 24.5zM383 880l-125 -150h-136l-125 150h136
l57 -68l57 68h136z" />
    <glyph glyph-name="dcaron" unicode="&#x10f;" horiz-adv-x="561" 
d="M15 690h120q94 0 139 -8q72 -12 136.5 -58t104.5 -119t40 -161q0 -77 -30.5 -142t-82.5 -111t-116 -68q-67 -23 -191 -23h-120v690zM293 189.5q45 24.5 68.5 65.5t23.5 90t-23.5 90t-68.5 65.5t-108 24.5v-360q63 0 108 24.5zM383 880l-125 -150h-136l-125 150h136
l57 -68l57 68h136z" />
    <glyph glyph-name="Dcroat" unicode="&#x110;" horiz-adv-x="561" 
d="M410.5 624q64.5 -46 104.5 -119t40 -161q0 -77 -30.5 -142t-82.5 -111t-116 -68q-67 -23 -191 -23h-120v690h120q94 0 139 -8q72 -12 136.5 -58zM293 189.5q45 24.5 68.5 65.5t23.5 90t-23.5 90t-68.5 65.5t-108 24.5v-105h95v-150h-95v-105q63 0 108 24.5z" />
    <glyph glyph-name="dcroat" unicode="&#x111;" horiz-adv-x="561" 
d="M15 690h120q94 0 139 -8q72 -12 136.5 -58t104.5 -119t40 -161q0 -77 -30.5 -142t-82.5 -111t-116 -68q-67 -23 -191 -23h-120v690zM293 189.5q45 24.5 68.5 65.5t23.5 90t-23.5 90t-68.5 65.5t-108 24.5v-360q63 0 108 24.5zM-73 420h346v-150h-346v150z" />
    <glyph glyph-name="Emacron" unicode="&#x112;" horiz-adv-x="465" 
d="M185 525v-100h180v-160h-180v-100h265v-165h-435v690h435v-165h-265zM57 850h352v-120h-352v120z" />
    <glyph glyph-name="emacron" unicode="&#x113;" horiz-adv-x="465" 
d="M185 525v-100h180v-160h-180v-100h265v-165h-435v690h435v-165h-265zM57 850h352v-120h-352v120z" />
    <glyph glyph-name="Edotaccent" unicode="&#x116;" horiz-adv-x="465" 
d="M185 525v-100h180v-160h-180v-100h265v-165h-435v690h435v-165h-265zM173 745q-25 25 -25 60t25 60t60 25t60 -25t25 -60t-25 -60t-60 -25t-60 25z" />
    <glyph glyph-name="edotaccent" unicode="&#x117;" horiz-adv-x="465" 
d="M185 525v-100h180v-160h-180v-100h265v-165h-435v690h435v-165h-265zM173 745q-25 25 -25 60t25 60t60 25t60 -25t25 -60t-25 -60t-60 -25t-60 25z" />
    <glyph glyph-name="Eogonek" unicode="&#x118;" horiz-adv-x="465" 
d="M185 525v-100h180v-160h-180v-100h265v-165h-435v690h435v-165h-265zM322 -146q-42 44 -42 126h170v-170q-86 0 -128 44z" />
    <glyph glyph-name="eogonek" unicode="&#x119;" horiz-adv-x="465" 
d="M185 525v-100h180v-160h-180v-100h265v-165h-435v690h435v-165h-265zM322 -146q-42 44 -42 126h170v-170q-86 0 -128 44z" />
    <glyph glyph-name="Ecaron" unicode="&#x11a;" horiz-adv-x="465" 
d="M185 525v-100h180v-160h-180v-100h265v-165h-435v690h435v-165h-265zM426 880l-125 -150h-136l-125 150h136l57 -68l57 68h136z" />
    <glyph glyph-name="ecaron" unicode="&#x11b;" horiz-adv-x="465" 
d="M185 525v-100h180v-160h-180v-100h265v-165h-435v690h435v-165h-265zM426 880l-125 -150h-136l-125 150h136l57 -68l57 68h136z" />
    <glyph glyph-name="Gbreve" unicode="&#x11e;" horiz-adv-x="547" 
d="M532 350v-350h-170q-101 0 -182.5 46t-127.5 125t-46 174q0 85 36.5 157t99.5 119.5t141 61.5q37 7 148 7h15v-165h-15q-68 0 -96 -2.5t-45 -9.5q-50 -19 -82 -66t-32 -103q0 -47 24 -88t66.5 -66t95.5 -25v185h170zM423 861v-9q0 -38 -22 -70.5t-57 -52t-74 -19.5
t-74.5 19.5t-57.5 52t-22 70.5v9h101v-9q0 -18 14.5 -32.5t38.5 -14.5t38.5 14.5t14.5 32.5v9h100z" />
    <glyph glyph-name="gbreve" unicode="&#x11f;" horiz-adv-x="547" 
d="M532 350v-350h-170q-101 0 -182.5 46t-127.5 125t-46 174q0 85 36.5 157t99.5 119.5t141 61.5q37 7 148 7h15v-165h-15q-68 0 -96 -2.5t-45 -9.5q-50 -19 -82 -66t-32 -103q0 -47 24 -88t66.5 -66t95.5 -25v185h170zM423 861v-9q0 -38 -22 -70.5t-57 -52t-74 -19.5
t-74.5 19.5t-57.5 52t-22 70.5v9h101v-9q0 -18 14.5 -32.5t38.5 -14.5t38.5 14.5t14.5 32.5v9h100z" />
    <glyph glyph-name="Gdotaccent" unicode="&#x120;" horiz-adv-x="547" 
d="M532 350v-350h-170q-101 0 -182.5 46t-127.5 125t-46 174q0 85 36.5 157t99.5 119.5t141 61.5q37 7 148 7h15v-165h-15q-68 0 -96 -2.5t-45 -9.5q-50 -19 -82 -66t-32 -103q0 -47 24 -88t66.5 -66t95.5 -25v185h170zM210 745q-25 25 -25 60t25 60t60 25t60 -25t25 -60
t-25 -60t-60 -25t-60 25z" />
    <glyph glyph-name="gdotaccent" unicode="&#x121;" horiz-adv-x="547" 
d="M532 350v-350h-170q-101 0 -182.5 46t-127.5 125t-46 174q0 85 36.5 157t99.5 119.5t141 61.5q37 7 148 7h15v-165h-15q-68 0 -96 -2.5t-45 -9.5q-50 -19 -82 -66t-32 -103q0 -47 24 -88t66.5 -66t95.5 -25v185h170zM210 745q-25 25 -25 60t25 60t60 25t60 -25t25 -60
t-25 -60t-60 -25t-60 25z" />
    <glyph glyph-name="Gcommaaccent" unicode="&#x122;" horiz-adv-x="547" 
d="M532 350v-350h-170q-101 0 -182.5 46t-127.5 125t-46 174q0 85 36.5 157t99.5 119.5t141 61.5q37 7 148 7h15v-165h-15q-68 0 -96 -2.5t-45 -9.5q-50 -19 -82 -66t-32 -103q0 -47 24 -88t66.5 -66t95.5 -25v185h170zM428 -52q25 -27 25 -66q0 -38 -25.5 -68.5
t-62.5 -30.5q6 14 6 26q0 14 -6 26q-29 0 -49 20t-20 49t20.5 50t48.5 21q38 0 63 -27z" />
    <glyph glyph-name="gcommaaccent" unicode="&#x123;" horiz-adv-x="547" 
d="M532 350v-350h-170q-101 0 -182.5 46t-127.5 125t-46 174q0 85 36.5 157t99.5 119.5t141 61.5q37 7 148 7h15v-165h-15q-68 0 -96 -2.5t-45 -9.5q-50 -19 -82 -66t-32 -103q0 -47 24 -88t66.5 -66t95.5 -25v185h170zM428 -52q25 -27 25 -66q0 -38 -25.5 -68.5
t-62.5 -30.5q6 14 6 26q0 14 -6 26q-29 0 -49 20t-20 49t20.5 50t48.5 21q38 0 63 -27z" />
    <glyph glyph-name="Hbar" unicode="&#x126;" horiz-adv-x="570" 
d="M555 690v-690h-170v265h-200v-265h-170v690h170v-265h200v265h170zM32 628h495v-140h-495v140z" />
    <glyph glyph-name="hbar" unicode="&#x127;" horiz-adv-x="570" 
d="M555 690v-690h-170v265h-200v-265h-170v690h170v-265h200v265h170zM32 628h495v-140h-495v140z" />
    <glyph glyph-name="Itilde" unicode="&#x128;" horiz-adv-x="200" 
d="M15 690h170v-690h-170v690zM118 736q-12 6 -26 18q-9 9 -18 14t-22 5q-10 0 -20.5 -10t-10.5 -25h-95q0 36 17.5 68t46.5 51.5t62 19.5q22 0 36.5 -7t29.5 -19q11 -9 18 -13t16 -4q10 0 18.5 9.5t8.5 25.5h94q0 -57 -34 -98t-87 -41q-22 0 -34 6z" />
    <glyph glyph-name="Imacron" unicode="&#x12a;" horiz-adv-x="200" 
d="M15 690h170v-690h-170v690zM-36 850h272v-120h-272v120z" />
    <glyph glyph-name="imacron" unicode="&#x12b;" horiz-adv-x="200" 
d="M15 690h170v-690h-170v690zM-36 850h272v-120h-272v120z" />
    <glyph glyph-name="Iogonek" unicode="&#x12e;" horiz-adv-x="200" 
d="M15 690h170v-690h-170v690zM57 -146q-42 44 -42 126h170v-170q-86 0 -128 44z" />
    <glyph glyph-name="iogonek" unicode="&#x12f;" horiz-adv-x="200" 
d="M15 690h170v-690h-170v690zM57 -146q-42 44 -42 126h170v-170q-86 0 -128 44z" />
    <glyph glyph-name="Idotaccent" unicode="&#x130;" horiz-adv-x="200" 
d="M15 690h170v-690h-170v690zM40 745q-25 25 -25 60t25 60t60 25t60 -25t25 -60t-25 -60t-60 -25t-60 25z" />
    <glyph glyph-name="dotlessi" unicode="&#x131;" horiz-adv-x="200" 
d="M15 690h170v-690h-170v690z" />
    <glyph glyph-name="Kcommaaccent" unicode="&#x136;" horiz-adv-x="515" 
d="M15 690h170v-280l145 280h180l-166 -322q80 -32 118 -108t38 -175v-85h-170v85q0 78 -36 121.5t-109 43.5v-250h-170v690zM311 -52q25 -27 25 -66q0 -38 -25.5 -68.5t-62.5 -30.5q6 14 6 26q0 14 -6 26q-29 0 -49 20t-20 49t20.5 50t48.5 21q38 0 63 -27z" />
    <glyph glyph-name="kcommaaccent" unicode="&#x137;" horiz-adv-x="515" 
d="M15 690h170v-280l145 280h180l-166 -322q80 -32 118 -108t38 -175v-85h-170v85q0 78 -36 121.5t-109 43.5v-250h-170v690zM311 -52q25 -27 25 -66q0 -38 -25.5 -68.5t-62.5 -30.5q6 14 6 26q0 14 -6 26q-29 0 -49 20t-20 49t20.5 50t48.5 21q38 0 63 -27z" />
    <glyph glyph-name="Lacute" unicode="&#x139;" horiz-adv-x="367" 
d="M355 165v-165h-340v690h170v-525h170zM88 861h159l-75 -141h-144z" />
    <glyph glyph-name="lacute" unicode="&#x13a;" horiz-adv-x="367" 
d="M355 165v-165h-340v690h170v-525h170zM88 861h159l-75 -141h-144z" />
    <glyph glyph-name="Lcommaaccent" unicode="&#x13b;" horiz-adv-x="367" 
d="M355 165v-165h-340v690h170v-525h170zM241 -52q25 -27 25 -66q0 -38 -25.5 -68.5t-62.5 -30.5q6 14 6 26q0 14 -6 26q-29 0 -49 20t-20 49t20.5 50t48.5 21q38 0 63 -27z" />
    <glyph glyph-name="lcommaaccent" unicode="&#x13c;" horiz-adv-x="367" 
d="M355 165v-165h-340v690h170v-525h170zM241 -52q25 -27 25 -66q0 -38 -25.5 -68.5t-62.5 -30.5q6 14 6 26q0 14 -6 26q-29 0 -49 20t-20 49t20.5 50t48.5 21q38 0 63 -27z" />
    <glyph glyph-name="Lcaron" unicode="&#x13d;" horiz-adv-x="367" 
d="M355 165v-165h-340v690h170v-525h170zM251 690h130l-34 -171h-115z" />
    <glyph glyph-name="lcaron" unicode="&#x13e;" horiz-adv-x="367" 
d="M355 165v-165h-340v690h170v-525h170zM251 690h130l-34 -171h-115z" />
    <glyph glyph-name="Lslash" unicode="&#x141;" horiz-adv-x="367" 
d="M355 165v-165h-340v690h170v-525h170zM42 340l272 145v-140l-204 -111z" />
    <glyph glyph-name="lslash" unicode="&#x142;" horiz-adv-x="367" 
d="M355 165v-165h-340v690h170v-525h170zM42 340l272 145v-140l-204 -111z" />
    <glyph glyph-name="Nacute" unicode="&#x143;" horiz-adv-x="525" 
d="M510 690v-690h-170v214q0 215 -155 266v-480h-170v690q101 0 183 -30.5t142 -88.5v119h170zM253 861h159l-75 -141h-144z" />
    <glyph glyph-name="nacute" unicode="&#x144;" horiz-adv-x="525" 
d="M510 690v-690h-170v214q0 215 -155 266v-480h-170v690q101 0 183 -30.5t142 -88.5v119h170zM253 861h159l-75 -141h-144z" />
    <glyph glyph-name="Ncommaaccent" unicode="&#x145;" horiz-adv-x="525" 
d="M510 690v-690h-170v214q0 215 -155 266v-480h-170v690q101 0 183 -30.5t142 -88.5v119h170zM318 -52q25 -27 25 -66q0 -38 -25.5 -68.5t-62.5 -30.5q6 14 6 26q0 14 -6 26q-29 0 -49 20t-20 49t20.5 50t48.5 21q38 0 63 -27z" />
    <glyph glyph-name="ncommaaccent" unicode="&#x146;" horiz-adv-x="525" 
d="M510 690v-690h-170v214q0 215 -155 266v-480h-170v690q101 0 183 -30.5t142 -88.5v119h170zM318 -52q25 -27 25 -66q0 -38 -25.5 -68.5t-62.5 -30.5q6 14 6 26q0 14 -6 26q-29 0 -49 20t-20 49t20.5 50t48.5 21q38 0 63 -27z" />
    <glyph glyph-name="Ncaron" unicode="&#x147;" horiz-adv-x="525" 
d="M510 690v-690h-170v214q0 215 -155 266v-480h-170v690q101 0 183 -30.5t142 -88.5v119h170zM458 880l-125 -150h-136l-125 150h136l57 -68l57 68h136z" />
    <glyph glyph-name="ncaron" unicode="&#x148;" horiz-adv-x="525" 
d="M510 690v-690h-170v214q0 215 -155 266v-480h-170v690q101 0 183 -30.5t142 -88.5v119h170zM458 880l-125 -150h-136l-125 150h136l57 -68l57 68h136z" />
    <glyph glyph-name="Eng" unicode="&#x14a;" horiz-adv-x="525" 
d="M510 690v-690h-5q0 -100 -60 -160.5t-170 -60.5v165q27 0 43.5 15t16.5 41v285q-23 153 -150 195v-480h-170v690q101 0 183 -30.5t142 -88.5v119h170z" />
    <glyph glyph-name="eng" unicode="&#x14b;" horiz-adv-x="525" 
d="M510 690v-690h-5q0 -100 -60 -160.5t-170 -60.5v165q27 0 43.5 15t16.5 41v285q-23 153 -150 195v-480h-170v690q101 0 183 -30.5t142 -88.5v119h170z" />
    <glyph glyph-name="Omacron" unicode="&#x14c;" 
d="M184.5 33q-82.5 48 -130.5 131t-48 182q0 98 48 180.5t130.5 130.5t181.5 48t182 -48t131.5 -130.5t48.5 -180.5q0 -99 -48.5 -182t-131.5 -131t-182 -48t-181.5 48zM462 177q44 26 70 70.5t26 96.5t-26 96.5t-70 71.5t-95 27q-52 0 -96 -26.5t-69.5 -71.5t-25.5 -97
t25.5 -96.5t69.5 -70.5t96 -26q51 0 95 26zM190 865h352v-120h-352v120z" />
    <glyph glyph-name="omacron" unicode="&#x14d;" 
d="M184.5 33q-82.5 48 -130.5 131t-48 182q0 98 48 180.5t130.5 130.5t181.5 48t182 -48t131.5 -130.5t48.5 -180.5q0 -99 -48.5 -182t-131.5 -131t-182 -48t-181.5 48zM462 177q44 26 70 70.5t26 96.5t-26 96.5t-70 71.5t-95 27q-52 0 -96 -26.5t-69.5 -71.5t-25.5 -97
t25.5 -96.5t69.5 -70.5t96 -26q51 0 95 26zM190 865h352v-120h-352v120z" />
    <glyph glyph-name="Ohungarumlaut" unicode="&#x150;" 
d="M184.5 33q-82.5 48 -130.5 131t-48 182q0 98 48 180.5t130.5 130.5t181.5 48t182 -48t131.5 -130.5t48.5 -180.5q0 -99 -48.5 -182t-131.5 -131t-182 -48t-181.5 48zM462 177q44 26 70 70.5t26 96.5t-26 96.5t-70 71.5t-95 27q-52 0 -96 -26.5t-69.5 -71.5t-25.5 -97
t25.5 -96.5t69.5 -70.5t96 -26q51 0 95 26zM232 875h159l-75 -141h-144zM453 876h159l-75 -141h-144z" />
    <glyph glyph-name="ohungarumlaut" unicode="&#x151;" 
d="M184.5 33q-82.5 48 -130.5 131t-48 182q0 98 48 180.5t130.5 130.5t181.5 48t182 -48t131.5 -130.5t48.5 -180.5q0 -99 -48.5 -182t-131.5 -131t-182 -48t-181.5 48zM462 177q44 26 70 70.5t26 96.5t-26 96.5t-70 71.5t-95 27q-52 0 -96 -26.5t-69.5 -71.5t-25.5 -97
t25.5 -96.5t69.5 -70.5t96 -26q51 0 95 26zM232 875h159l-75 -141h-144zM453 876h159l-75 -141h-144z" />
    <glyph glyph-name="OE" unicode="&#x152;" horiz-adv-x="1018" 
d="M738 530v-100h180v-165h-180v-100h265v-165h-395v76q-49 -44 -111 -67.5t-131 -23.5q-99 0 -181.5 48t-130.5 131t-48 182q0 98 48 180.5t130.5 130.5t181.5 48q69 0 131 -23.5t111 -67.5v76h395v-160h-265zM462 177q44 26 70 70.5t26 96.5t-26 96.5t-70 71.5t-95 27
q-52 0 -96 -26.5t-69.5 -71.5t-25.5 -97t25.5 -96.5t69.5 -70.5t96 -26q51 0 95 26z" />
    <glyph glyph-name="oe" unicode="&#x153;" horiz-adv-x="1018" 
d="M738 530v-100h180v-165h-180v-100h265v-165h-395v76q-49 -44 -111 -67.5t-131 -23.5q-99 0 -181.5 48t-130.5 131t-48 182q0 98 48 180.5t130.5 130.5t181.5 48q69 0 131 -23.5t111 -67.5v76h395v-160h-265zM462 177q44 26 70 70.5t26 96.5t-26 96.5t-70 71.5t-95 27
q-52 0 -96 -26.5t-69.5 -71.5t-25.5 -97t25.5 -96.5t69.5 -70.5t96 -26q51 0 95 26z" />
    <glyph glyph-name="Racute" unicode="&#x154;" horiz-adv-x="500" 
d="M465 172.5q25 -54.5 25 -127.5v-45h-170v45q0 59 -38 99.5t-97 40.5v-185h-170v690h110q83 0 125 -4q68 -7 121.5 -40t83.5 -86.5t30 -119.5q0 -58 -24 -103t-69 -75q48 -35 73 -89.5zM185 345q130 0 130 90q0 49 -36 72t-94 23v-185zM228 861h159l-75 -141h-144z" />
    <glyph glyph-name="racute" unicode="&#x155;" horiz-adv-x="500" 
d="M465 172.5q25 -54.5 25 -127.5v-45h-170v45q0 59 -38 99.5t-97 40.5v-185h-170v690h110q83 0 125 -4q68 -7 121.5 -40t83.5 -86.5t30 -119.5q0 -58 -24 -103t-69 -75q48 -35 73 -89.5zM185 345q130 0 130 90q0 49 -36 72t-94 23v-185zM228 861h159l-75 -141h-144z" />
    <glyph glyph-name="Rcommaaccent" unicode="&#x156;" horiz-adv-x="500" 
d="M465 172.5q25 -54.5 25 -127.5v-45h-170v45q0 59 -38 99.5t-97 40.5v-185h-170v690h110q83 0 125 -4q68 -7 121.5 -40t83.5 -86.5t30 -119.5q0 -58 -24 -103t-69 -75q48 -35 73 -89.5zM185 345q130 0 130 90q0 49 -36 72t-94 23v-185zM306 -52q25 -27 25 -66
q0 -38 -25.5 -68.5t-62.5 -30.5q6 14 6 26q0 14 -6 26q-29 0 -49 20t-20 49t20.5 50t48.5 21q38 0 63 -27z" />
    <glyph glyph-name="rcommaaccent" unicode="&#x157;" horiz-adv-x="500" 
d="M465 172.5q25 -54.5 25 -127.5v-45h-170v45q0 59 -38 99.5t-97 40.5v-185h-170v690h110q83 0 125 -4q68 -7 121.5 -40t83.5 -86.5t30 -119.5q0 -58 -24 -103t-69 -75q48 -35 73 -89.5zM185 345q130 0 130 90q0 49 -36 72t-94 23v-185zM306 -52q25 -27 25 -66
q0 -38 -25.5 -68.5t-62.5 -30.5q6 14 6 26q0 14 -6 26q-29 0 -49 20t-20 49t20.5 50t48.5 21q38 0 63 -27z" />
    <glyph glyph-name="Rcaron" unicode="&#x158;" horiz-adv-x="500" 
d="M465 172.5q25 -54.5 25 -127.5v-45h-170v45q0 59 -38 99.5t-97 40.5v-185h-170v690h110q83 0 125 -4q68 -7 121.5 -40t83.5 -86.5t30 -119.5q0 -58 -24 -103t-69 -75q48 -35 73 -89.5zM185 345q130 0 130 90q0 49 -36 72t-94 23v-185zM433 880l-125 -150h-136l-125 150
h136l57 -68l57 68h136z" />
    <glyph glyph-name="rcaron" unicode="&#x159;" horiz-adv-x="500" 
d="M465 172.5q25 -54.5 25 -127.5v-45h-170v45q0 59 -38 99.5t-97 40.5v-185h-170v690h110q83 0 125 -4q68 -7 121.5 -40t83.5 -86.5t30 -119.5q0 -58 -24 -103t-69 -75q48 -35 73 -89.5zM185 345q130 0 130 90q0 49 -36 72t-94 23v-185zM433 880l-125 -150h-136l-125 150
h136l57 -68l57 68h136z" />
    <glyph glyph-name="Sacute" unicode="&#x15a;" horiz-adv-x="458" 
d="M14 165h203q30 0 45.5 12.5t15.5 31.5t-13.5 32.5t-33.5 20.5q-79 26 -110.5 40t-54.5 38q-54 55 -54 143q0 76 40 131t113 70q26 6 105 6h93v-165h-133q-25 0 -36.5 -12t-11.5 -31q0 -40 45 -53q65 -19 100 -33t60 -35q30 -26 45.5 -65t15.5 -84q0 -62 -28.5 -110.5
t-76.5 -75t-106 -26.5h-223v165zM188 861h159l-75 -141h-144z" />
    <glyph glyph-name="sacute" unicode="&#x15b;" horiz-adv-x="458" 
d="M14 165h203q30 0 45.5 12.5t15.5 31.5t-13.5 32.5t-33.5 20.5q-79 26 -110.5 40t-54.5 38q-54 55 -54 143q0 76 40 131t113 70q26 6 105 6h93v-165h-133q-25 0 -36.5 -12t-11.5 -31q0 -40 45 -53q65 -19 100 -33t60 -35q30 -26 45.5 -65t15.5 -84q0 -62 -28.5 -110.5
t-76.5 -75t-106 -26.5h-223v165zM188 861h159l-75 -141h-144z" />
    <glyph glyph-name="Scedilla" unicode="&#x15e;" horiz-adv-x="458" 
d="M14 165h203q30 0 45.5 12.5t15.5 31.5t-13.5 32.5t-33.5 20.5q-79 26 -110.5 40t-54.5 38q-54 55 -54 143q0 76 40 131t113 70q26 6 105 6h93v-165h-133q-25 0 -36.5 -12t-11.5 -31q0 -40 45 -53q65 -19 100 -33t60 -35q30 -26 45.5 -65t15.5 -84q0 -62 -28.5 -110.5
t-76.5 -75t-106 -26.5h-223v165zM223 -174h-159l75 141h144z" />
    <glyph glyph-name="scedilla" unicode="&#x15f;" horiz-adv-x="458" 
d="M14 165h203q30 0 45.5 12.5t15.5 31.5t-13.5 32.5t-33.5 20.5q-79 26 -110.5 40t-54.5 38q-54 55 -54 143q0 76 40 131t113 70q26 6 105 6h93v-165h-133q-25 0 -36.5 -12t-11.5 -31q0 -40 45 -53q65 -19 100 -33t60 -35q30 -26 45.5 -65t15.5 -84q0 -62 -28.5 -110.5
t-76.5 -75t-106 -26.5h-223v165zM223 -174h-159l75 141h144z" />
    <glyph glyph-name="Scaron" unicode="&#x160;" horiz-adv-x="458" 
d="M14 165h203q30 0 45.5 12.5t15.5 31.5t-13.5 32.5t-33.5 20.5q-79 26 -110.5 40t-54.5 38q-54 55 -54 143q0 76 40 131t113 70q26 6 105 6h93v-165h-133q-25 0 -36.5 -12t-11.5 -31q0 -40 45 -53q65 -19 100 -33t60 -35q30 -26 45.5 -65t15.5 -84q0 -62 -28.5 -110.5
t-76.5 -75t-106 -26.5h-223v165zM393 880l-125 -150h-136l-125 150h136l57 -68l57 68h136z" />
    <glyph glyph-name="scaron" unicode="&#x161;" horiz-adv-x="458" 
d="M14 165h203q30 0 45.5 12.5t15.5 31.5t-13.5 32.5t-33.5 20.5q-79 26 -110.5 40t-54.5 38q-54 55 -54 143q0 76 40 131t113 70q26 6 105 6h93v-165h-133q-25 0 -36.5 -12t-11.5 -31q0 -40 45 -53q65 -19 100 -33t60 -35q30 -26 45.5 -65t15.5 -84q0 -62 -28.5 -110.5
t-76.5 -75t-106 -26.5h-223v165zM393 880l-125 -150h-136l-125 150h136l57 -68l57 68h136z" />
    <glyph glyph-name="uni0162" unicode="&#x162;" horiz-adv-x="510" 
d="M495 525h-155v-525h-170v525h-155v165h480v-165zM275 -174h-159l75 141h144z" />
    <glyph glyph-name="uni0163" unicode="&#x163;" horiz-adv-x="510" 
d="M495 525h-155v-525h-170v525h-155v165h480v-165zM275 -174h-159l75 141h144z" />
    <glyph glyph-name="Tcaron" unicode="&#x164;" horiz-adv-x="510" 
d="M495 525h-155v-525h-170v525h-155v165h480v-165zM448 880l-125 -150h-136l-125 150h136l57 -68l57 68h136z" />
    <glyph glyph-name="tcaron" unicode="&#x165;" horiz-adv-x="510" 
d="M495 525h-155v-525h-170v525h-155v165h480v-165zM448 880l-125 -150h-136l-125 150h136l57 -68l57 68h136z" />
    <glyph glyph-name="Tbar" unicode="&#x166;" horiz-adv-x="510" 
d="M495 525h-155v-525h-170v525h-155v165h480v-165zM82 420h346v-150h-346v150z" />
    <glyph glyph-name="tbar" unicode="&#x167;" horiz-adv-x="510" 
d="M495 525h-155v-525h-170v525h-155v165h480v-165zM82 420h346v-150h-346v150z" />
    <glyph glyph-name="Umacron" unicode="&#x16a;" horiz-adv-x="526" 
d="M143.5 19q-56.5 29 -92.5 90t-36 151v430h170v-430q0 -51 18 -78t60 -27t60 27t18 78v430h170v-430q0 -90 -36 -151t-92.5 -90t-119.5 -29t-119.5 29zM87 850h352v-120h-352v120z" />
    <glyph glyph-name="umacron" unicode="&#x16b;" horiz-adv-x="526" 
d="M143.5 19q-56.5 29 -92.5 90t-36 151v430h170v-430q0 -51 18 -78t60 -27t60 27t18 78v430h170v-430q0 -90 -36 -151t-92.5 -90t-119.5 -29t-119.5 29zM87 850h352v-120h-352v120z" />
    <glyph glyph-name="Uring" unicode="&#x16e;" horiz-adv-x="526" 
d="M143.5 19q-56.5 29 -92.5 90t-36 151v430h170v-430q0 -51 18 -78t60 -27t60 27t18 78v430h170v-430q0 -90 -36 -151t-92.5 -90t-119.5 -29t-119.5 29zM192 749.5q-29 29.5 -29 70.5q0 42 29 71t72 29q41 0 70 -29.5t29 -70.5t-29 -70.5t-70 -29.5q-43 0 -72 29.5z
M291.5 790.5q11.5 12.5 11.5 29.5t-11.5 29.5t-27.5 12.5q-17 0 -29 -12.5t-12 -29.5t12 -29.5t29 -12.5q16 0 27.5 12.5z" />
    <glyph glyph-name="uring" unicode="&#x16f;" horiz-adv-x="526" 
d="M143.5 19q-56.5 29 -92.5 90t-36 151v430h170v-430q0 -51 18 -78t60 -27t60 27t18 78v430h170v-430q0 -90 -36 -151t-92.5 -90t-119.5 -29t-119.5 29zM192 749.5q-29 29.5 -29 70.5q0 42 29 71t72 29q41 0 70 -29.5t29 -70.5t-29 -70.5t-70 -29.5q-43 0 -72 29.5z
M291.5 790.5q11.5 12.5 11.5 29.5t-11.5 29.5t-27.5 12.5q-17 0 -29 -12.5t-12 -29.5t12 -29.5t29 -12.5q16 0 27.5 12.5z" />
    <glyph glyph-name="Uhungarumlaut" unicode="&#x170;" horiz-adv-x="526" 
d="M143.5 19q-56.5 29 -92.5 90t-36 151v430h170v-430q0 -51 18 -78t60 -27t60 27t18 78v430h170v-430q0 -90 -36 -151t-92.5 -90t-119.5 -29t-119.5 29zM129 860h159l-75 -141h-144zM350 861h159l-75 -141h-144z" />
    <glyph glyph-name="uhungarumlaut" unicode="&#x171;" horiz-adv-x="526" 
d="M143.5 19q-56.5 29 -92.5 90t-36 151v430h170v-430q0 -51 18 -78t60 -27t60 27t18 78v430h170v-430q0 -90 -36 -151t-92.5 -90t-119.5 -29t-119.5 29zM129 860h159l-75 -141h-144zM350 861h159l-75 -141h-144z" />
    <glyph glyph-name="Uogonek" unicode="&#x172;" horiz-adv-x="526" 
d="M143.5 19q-56.5 29 -92.5 90t-36 151v430h170v-430q0 -51 18 -78t60 -27t60 27t18 78v430h170v-430q0 -90 -36 -151t-92.5 -90t-119.5 -29t-119.5 29zM326 -47q-42 44 -42 126h170v-170q-86 0 -128 44z" />
    <glyph glyph-name="uogonek" unicode="&#x173;" horiz-adv-x="526" 
d="M143.5 19q-56.5 29 -92.5 90t-36 151v430h170v-430q0 -51 18 -78t60 -27t60 27t18 78v430h170v-430q0 -90 -36 -151t-92.5 -90t-119.5 -29t-119.5 29zM326 -47q-42 44 -42 126h170v-170q-86 0 -128 44z" />
    <glyph glyph-name="Wcircumflex" unicode="&#x174;" horiz-adv-x="808" 
d="M137.5 19q-54.5 29 -88.5 90t-34 151v430h170v-430q0 -57 17.5 -81t49.5 -24t49.5 24t17.5 81v430h170v-430q0 -57 17.5 -81t49.5 -24t49.5 24t17.5 81v430h170v-430q0 -90 -34 -151t-88.5 -90t-116.5 -29q-45 0 -85 16t-65 49q-25 -33 -65 -49t-85 -16q-62 0 -116.5 29z
M580 820v-120l-176 90l-176 -90v120l176 90z" />
    <glyph glyph-name="wcircumflex" unicode="&#x175;" horiz-adv-x="808" 
d="M137.5 19q-54.5 29 -88.5 90t-34 151v430h170v-430q0 -57 17.5 -81t49.5 -24t49.5 24t17.5 81v430h170v-430q0 -57 17.5 -81t49.5 -24t49.5 24t17.5 81v430h170v-430q0 -90 -34 -151t-88.5 -90t-116.5 -29q-45 0 -85 16t-65 49q-25 -33 -65 -49t-85 -16q-62 0 -116.5 29z
M580 820v-120l-176 90l-176 -90v120l176 90z" />
    <glyph glyph-name="Ycircumflex" unicode="&#x176;" horiz-adv-x="550" 
d="M190 340l-185 350h180l90 -170l90 170h180l-185 -350v-340h-170v340zM451 820v-120l-176 90l-176 -90v120l176 90z" />
    <glyph glyph-name="ycircumflex" unicode="&#x177;" horiz-adv-x="550" 
d="M190 340l-185 350h180l90 -170l90 170h180l-185 -350v-340h-170v340zM451 820v-120l-176 90l-176 -90v120l176 90z" />
    <glyph glyph-name="Ydieresis" unicode="&#x178;" horiz-adv-x="550" 
d="M190 340l-185 350h180l90 -170l90 170h180l-185 -350v-340h-170v340zM118.5 742.5q-23.5 22.5 -23.5 54.5t23.5 55t55.5 23q31 0 53.5 -23t22.5 -55t-22.5 -54.5t-53.5 -22.5q-32 0 -55.5 22.5zM322.5 742.5q-22.5 22.5 -22.5 54.5t22.5 55t54.5 23t55 -23t23 -55
t-23 -54.5t-55 -22.5t-54.5 22.5z" />
    <glyph glyph-name="Zacute" unicode="&#x179;" horiz-adv-x="570" 
d="M285 525h-217v165h490l-273 -525h275v-165h-555zM301 861h159l-75 -141h-144z" />
    <glyph glyph-name="zacute" unicode="&#x17a;" horiz-adv-x="570" 
d="M285 525h-217v165h490l-273 -525h275v-165h-555zM301 861h159l-75 -141h-144z" />
    <glyph glyph-name="Zdotaccent" unicode="&#x17b;" horiz-adv-x="570" 
d="M285 525h-217v165h490l-273 -525h275v-165h-555zM253 745q-25 25 -25 60t25 60t60 25t60 -25t25 -60t-25 -60t-60 -25t-60 25z" />
    <glyph glyph-name="zdotaccent" unicode="&#x17c;" horiz-adv-x="570" 
d="M285 525h-217v165h490l-273 -525h275v-165h-555zM253 745q-25 25 -25 60t25 60t60 25t60 -25t25 -60t-25 -60t-60 -25t-60 25z" />
    <glyph glyph-name="Zcaron" unicode="&#x17d;" horiz-adv-x="570" 
d="M285 525h-217v165h490l-273 -525h275v-165h-555zM506 880l-125 -150h-136l-125 150h136l57 -68l57 68h136z" />
    <glyph glyph-name="zcaron" unicode="&#x17e;" horiz-adv-x="570" 
d="M285 525h-217v165h490l-273 -525h275v-165h-555zM506 880l-125 -150h-136l-125 150h136l57 -68l57 68h136z" />
    <glyph glyph-name="Oslashacute" unicode="&#x1fe;" 
d="M184.5 33q-82.5 48 -130.5 131t-48 182q0 98 48 180.5t130.5 130.5t181.5 48t182 -48t131.5 -130.5t48.5 -180.5q0 -99 -48.5 -182t-131.5 -131t-182 -48t-181.5 48zM462 177q44 26 70 70.5t26 96.5t-26 96.5t-70 71.5t-95 27q-52 0 -96 -26.5t-69.5 -71.5t-25.5 -97
t25.5 -96.5t69.5 -70.5t96 -26q51 0 95 26zM56 57l531 642l80 -67l-530 -641zM372 876h159l-75 -141h-144z" />
    <glyph glyph-name="Scommaaccent" unicode="&#x218;" horiz-adv-x="458" 
d="M14 165h203q30 0 45.5 12.5t15.5 31.5t-13.5 32.5t-33.5 20.5q-79 26 -110.5 40t-54.5 38q-54 55 -54 143q0 76 40 131t113 70q26 6 105 6h93v-165h-133q-25 0 -36.5 -12t-11.5 -31q0 -40 45 -53q65 -19 100 -33t60 -35q30 -26 45.5 -65t15.5 -84q0 -62 -28.5 -110.5
t-76.5 -75t-106 -26.5h-223v165zM256 -52q25 -27 25 -66q0 -38 -25.5 -68.5t-62.5 -30.5q6 14 6 26q0 14 -6 26q-29 0 -49 20t-20 49t20.5 50t48.5 21q38 0 63 -27z" />
    <glyph glyph-name="scommaaccent" unicode="&#x219;" horiz-adv-x="458" 
d="M14 165h203q30 0 45.5 12.5t15.5 31.5t-13.5 32.5t-33.5 20.5q-79 26 -110.5 40t-54.5 38q-54 55 -54 143q0 76 40 131t113 70q26 6 105 6h93v-165h-133q-25 0 -36.5 -12t-11.5 -31q0 -40 45 -53q65 -19 100 -33t60 -35q30 -26 45.5 -65t15.5 -84q0 -62 -28.5 -110.5
t-76.5 -75t-106 -26.5h-223v165zM256 -52q25 -27 25 -66q0 -38 -25.5 -68.5t-62.5 -30.5q6 14 6 26q0 14 -6 26q-29 0 -49 20t-20 49t20.5 50t48.5 21q38 0 63 -27z" />
    <glyph glyph-name="uni021A" unicode="&#x21a;" horiz-adv-x="510" 
d="M495 525h-155v-525h-170v525h-155v165h480v-165zM308 -52q25 -27 25 -66q0 -38 -25.5 -68.5t-62.5 -30.5q6 14 6 26q0 14 -6 26q-29 0 -49 20t-20 49t20.5 50t48.5 21q38 0 63 -27z" />
    <glyph glyph-name="uni021B" unicode="&#x21b;" horiz-adv-x="510" 
d="M495 525h-155v-525h-170v525h-155v165h480v-165zM308 -52q25 -27 25 -66q0 -38 -25.5 -68.5t-62.5 -30.5q6 14 6 26q0 14 -6 26q-29 0 -49 20t-20 49t20.5 50t48.5 21q38 0 63 -27z" />
    <glyph glyph-name="circumflex" unicode="&#x2c6;" horiz-adv-x="366" 
d="M359 680v-120l-176 90l-176 -90v120l176 90z" />
    <glyph glyph-name="caron" unicode="&#x2c7;" horiz-adv-x="390" 
d="M388 740l-125 -150h-136l-125 150h136l57 -68l57 68h136z" />
    <glyph glyph-name="breve" unicode="&#x2d8;" horiz-adv-x="317" 
d="M312 721v-9q0 -38 -22 -70.5t-57 -52t-74 -19.5t-74.5 19.5t-57.5 52t-22 70.5v9h101v-9q0 -18 14.5 -32.5t38.5 -14.5t38.5 14.5t14.5 32.5v9h100z" />
    <glyph glyph-name="dotaccent" unicode="&#x2d9;" horiz-adv-x="180" 
d="M30 605q-25 25 -25 60t25 60t60 25t60 -25t25 -60t-25 -60t-60 -25t-60 25z" />
    <glyph glyph-name="ring" unicode="&#x2da;" horiz-adv-x="210" 
d="M34 609.5q-29 29.5 -29 70.5q0 42 29 71t72 29q41 0 70 -29.5t29 -70.5t-29 -70.5t-70 -29.5q-43 0 -72 29.5zM133.5 650.5q11.5 12.5 11.5 29.5t-11.5 29.5t-27.5 12.5q-17 0 -29 -12.5t-12 -29.5t12 -29.5t29 -12.5q16 0 27.5 12.5z" />
    <glyph glyph-name="ogonek" unicode="&#x2db;" horiz-adv-x="180" 
d="M46 -180q-42 44 -42 126h170v-170q-86 0 -128 44z" />
    <glyph glyph-name="tilde" unicode="&#x2dc;" horiz-adv-x="395" 
d="M219 597.5q-17 7.5 -37 21.5q-3 2 -12 7.5t-16.5 8t-13.5 2.5q-17 0 -29 -11.5t-12 -27.5h-95q0 36 18 68t49.5 51.5t68.5 19.5q26 0 42.5 -7.5t37.5 -21.5q13 -10 21.5 -14t18.5 -4q16 0 26.5 11t10.5 28h94q0 -36 -17.5 -68t-47.5 -51.5t-66 -19.5q-24 0 -41 7.5z" />
    <glyph glyph-name="hungarumlaut" unicode="&#x2dd;" horiz-adv-x="446" 
d="M63 720h159l-75 -141h-144zM284 721h159l-75 -141h-144z" />
    <glyph glyph-name="gravecomb" unicode="&#x300;" horiz-adv-x="0" 
d="M-147 580l-75 141h159l60 -141h-144z" />
    <glyph glyph-name="acutecomb" unicode="&#x301;" horiz-adv-x="0" 
d="M-162 721h159l-75 -141h-144z" />
    <glyph glyph-name="uni0302" unicode="&#x302;" horiz-adv-x="0" 
d="M-7 680v-120l-176 90l-176 -90v120l176 90z" />
    <glyph glyph-name="tildecomb" unicode="&#x303;" horiz-adv-x="0" 
d="M-176 597.5q-17 7.5 -37 21.5q-3 2 -12 7.5t-16.5 8t-13.5 2.5q-17 0 -29 -11.5t-12 -27.5h-95q0 36 18 68t49.5 51.5t68.5 19.5q26 0 42.5 -7.5t37.5 -21.5q13 -10 21.5 -14t18.5 -4q16 0 26.5 11t10.5 28h94q0 -36 -17.5 -68t-47.5 -51.5t-66 -19.5q-24 0 -41 7.5z" />
    <glyph glyph-name="uni0304" unicode="&#x304;" horiz-adv-x="0" 
d="M-363 710h352v-120h-352v120z" />
    <glyph glyph-name="uni0306" unicode="&#x306;" horiz-adv-x="0" 
d="M-5 721v-9q0 -38 -22 -70.5t-57 -52t-74 -19.5t-74.5 19.5t-57.5 52t-22 70.5v9h101v-9q0 -18 14.5 -32.5t38.5 -14.5t38.5 14.5t14.5 32.5v9h100z" />
    <glyph glyph-name="uni0307" unicode="&#x307;" horiz-adv-x="0" 
d="M-150 605q-25 25 -25 60t25 60t60 25t60 -25t25 -60t-25 -60t-60 -25t-60 25z" />
    <glyph glyph-name="uni0308" unicode="&#x308;" horiz-adv-x="0" 
d="M-341.5 602.5q-23.5 22.5 -23.5 54.5t23.5 55t55.5 23q31 0 53.5 -23t22.5 -55t-22.5 -54.5t-53.5 -22.5q-32 0 -55.5 22.5zM-137.5 602.5q-22.5 22.5 -22.5 54.5t22.5 55t54.5 23t55 -23t23 -55t-23 -54.5t-55 -22.5t-54.5 22.5z" />
    <glyph glyph-name="uni030A" unicode="&#x30a;" horiz-adv-x="0" 
d="M-176 609.5q-29 29.5 -29 70.5q0 42 29 71t72 29q41 0 70 -29.5t29 -70.5t-29 -70.5t-70 -29.5q-43 0 -72 29.5zM-76.5 650.5q11.5 12.5 11.5 29.5t-11.5 29.5t-27.5 12.5q-17 0 -29 -12.5t-12 -29.5t12 -29.5t29 -12.5q16 0 27.5 12.5z" />
    <glyph glyph-name="uni030B" unicode="&#x30b;" horiz-adv-x="0" 
d="M-383 720h159l-75 -141h-144zM-162 721h159l-75 -141h-144z" />
    <glyph glyph-name="uni030C" unicode="&#x30c;" horiz-adv-x="0" 
d="M-2 740l-125 -150h-136l-125 150h136l57 -68l57 68h136z" />
    <glyph glyph-name="uni0312" unicode="&#x312;" horiz-adv-x="0" 
d="M-136 612q-25 27 -25 66q0 38 25.5 68.5t62.5 30.5q-6 -14 -6 -26q0 -14 6 -26q29 0 49 -20t20 -49t-20.5 -50t-48.5 -21q-38 0 -63 27z" />
    <glyph glyph-name="uni0326" unicode="&#x326;" horiz-adv-x="0" 
d="M-30 -52q25 -27 25 -66q0 -38 -25.5 -68.5t-62.5 -30.5q6 14 6 26q0 14 -6 26q-29 0 -49 20t-20 49t20.5 50t48.5 21q38 0 63 -27z" />
    <glyph glyph-name="uni0327" unicode="&#x327;" horiz-adv-x="0" 
d="M-64 -174h-159l75 141h144z" />
    <glyph glyph-name="uni0328" unicode="&#x328;" horiz-adv-x="0" 
d="M-134 -180q-42 44 -42 126h170v-170q-86 0 -128 44z" />
    <glyph glyph-name="uni0335" unicode="&#x335;" horiz-adv-x="0" 
d="M-358 420h346v-150h-346v150z" />
    <glyph glyph-name="uni0336" unicode="&#x336;" horiz-adv-x="0" 
d="M-507 415h495v-140h-495v140z" />
    <glyph glyph-name="uni0337" unicode="&#x337;" horiz-adv-x="0" 
d="M-273 380l272 145v-140l-204 -111z" />
    <glyph glyph-name="uni0338" unicode="&#x338;" horiz-adv-x="0" 
d="M-612 60l531 642l80 -67l-530 -641z" />
    <glyph glyph-name="uni0401" unicode="&#x401;" horiz-adv-x="465" 
d="M185 525v-100h180v-160h-180v-100h265v-165h-435v690h435v-165h-265zM82.5 742.5q-23.5 22.5 -23.5 54.5t23.5 55t55.5 23q31 0 53.5 -23t22.5 -55t-22.5 -54.5t-53.5 -22.5q-32 0 -55.5 22.5zM286.5 742.5q-22.5 22.5 -22.5 54.5t22.5 55t54.5 23t55 -23t23 -55
t-23 -54.5t-55 -22.5t-54.5 22.5z" />
    <glyph glyph-name="uni0403" unicode="&#x403;" horiz-adv-x="501" 
d="M486 525h-301v-525h-170v690h471v-165zM239 861h159l-75 -141h-144z" />
    <glyph glyph-name="uni0404" unicode="&#x404;" horiz-adv-x="406" 
d="M257 496q-43 -29 -64 -76h169v-150h-169q21 -47 64 -76t94 -29h40v-165h-40q-94 0 -173 46.5t-125.5 125.5t-46.5 173t46.5 173t125.5 125.5t173 46.5h40v-165h-40q-51 0 -94 -29z" />
    <glyph glyph-name="uni0405" unicode="&#x405;" horiz-adv-x="458" 
d="M14 165h203q30 0 45.5 12.5t15.5 31.5t-13.5 32.5t-33.5 20.5q-79 26 -110.5 40t-54.5 38q-54 55 -54 143q0 76 40 131t113 70q26 6 105 6h93v-165h-133q-25 0 -36.5 -12t-11.5 -31q0 -40 45 -53q65 -19 100 -33t60 -35q30 -26 45.5 -65t15.5 -84q0 -62 -28.5 -110.5
t-76.5 -75t-106 -26.5h-223v165z" />
    <glyph glyph-name="uni0406" unicode="&#x406;" horiz-adv-x="200" 
d="M15 690h170v-690h-170v690z" />
    <glyph glyph-name="uni0407" unicode="&#x407;" horiz-adv-x="200" 
d="M15 690h170v-690h-170v690zM-56.5 742.5q-23.5 22.5 -23.5 54.5t23.5 55t55.5 23q31 0 53.5 -23t22.5 -55t-22.5 -54.5t-53.5 -22.5q-32 0 -55.5 22.5zM147.5 742.5q-22.5 22.5 -22.5 54.5t22.5 55t54.5 23t55 -23t23 -55t-23 -54.5t-55 -22.5t-54.5 22.5z" />
    <glyph glyph-name="uni0408" unicode="&#x408;" horiz-adv-x="252" 
d="M7 165q31 0 45.5 12.5t14.5 43.5v469h170v-469q0 -100 -60 -160.5t-170 -60.5v165z" />
    <glyph glyph-name="uni040C" unicode="&#x40c;" horiz-adv-x="515" 
d="M15 690h170v-280l145 280h180l-166 -322q80 -32 118 -108t38 -175v-85h-170v85q0 78 -36 121.5t-109 43.5v-250h-170v690zM248 861h159l-75 -141h-144z" />
    <glyph glyph-name="uni040D" unicode="&#x40d;" horiz-adv-x="542" 
d="M527 0h-170v320l-172 -171l-170 -169v710h170v-315l342 335v-710zM211 720l-75 141h159l60 -141h-144z" />
    <glyph glyph-name="uni040E" unicode="&#x40e;" horiz-adv-x="565" 
d="M342 204q-40 -85 -64 -123t-65.5 -59.5t-113.5 -21.5h-50v165h30q58 0 82 44l32 73l-188 408h190l88 -201l87 201h190zM436 861v-9q0 -38 -22 -70.5t-57 -52t-74 -19.5t-74.5 19.5t-57.5 52t-22 70.5v9h101v-9q0 -18 14.5 -32.5t38.5 -14.5t38.5 14.5t14.5 32.5v9h100z
" />
    <glyph glyph-name="uni0410" unicode="&#x410;" horiz-adv-x="517" 
d="M74 480.5q62 106.5 172 158t256 51.5v-690h-170v100h-150v-100h-170v214q0 160 62 266.5zM332 265v226q-132 -52 -148 -226h148z" />
    <glyph glyph-name="uni0411" unicode="&#x411;" horiz-adv-x="520" 
d="M409 413q51 -32 78 -83.5t27 -107.5t-27 -107t-78 -83t-118 -32h-276v690h474v-160h-304v-85h106q67 0 118 -32zM329.5 178q15.5 18 15.5 44t-15.5 44.5t-38.5 18.5h-106v-125h106q23 0 38.5 18z" />
    <glyph glyph-name="uni0412" unicode="&#x412;" horiz-adv-x="510" 
d="M15 690h191q68 0 96 -3q59 -7 101 -38t63 -75.5t21 -91.5q0 -37 -13.5 -70.5t-42.5 -56.5q33 -24 53.5 -66t20.5 -89q0 -54 -27 -100t-78 -73t-119 -27h-266v690zM264 425q20 0 36.5 14.5t16.5 37.5t-16.5 38t-36.5 15h-79v-105h79zM281 160q21 0 37.5 13.5t16.5 38.5
t-16.5 39t-37.5 14h-96v-105h96z" />
    <glyph glyph-name="uni0413" unicode="&#x413;" horiz-adv-x="501" 
d="M486 525h-301v-525h-170v690h471v-165z" />
    <glyph glyph-name="uni0414" unicode="&#x414;" horiz-adv-x="695" 
d="M680 165v-260h-170v95h-325v-95h-170v260h25q29 0 44.5 12t15.5 44v469h495v-525h85zM425 165v360h-155v-304q0 -26 -5 -56h160z" />
    <glyph glyph-name="uni0415" unicode="&#x415;" horiz-adv-x="465" 
d="M185 525v-100h180v-160h-180v-100h265v-165h-435v690h435v-165h-265z" />
    <glyph glyph-name="uni0416" unicode="&#x416;" horiz-adv-x="810" 
d="M500 690h-170v-280l-145 280h-180l166 -322q-80 -32 -118 -108t-38 -175v-85h170v85q0 78 36 121.5t109 43.5v-250h170v690zM310 690h170v-280l145 280h180l-166 -322q80 -32 118 -108t38 -175v-85h-170v85q0 78 -36 121.5t-109 43.5v-250h-170v690z" />
    <glyph glyph-name="uni0417" unicode="&#x417;" horiz-adv-x="551" 
d="M143.5 22q-61.5 36 -97.5 97.5t-36 133.5v19h171v-13q0 -44 28 -75t69 -31q40 0 68.5 30t28.5 70q0 46 -30 78.5t-77 32.5h-173l161 161h-209v165h452l-165 -165q63 -15 111 -54.5t74 -96.5t26 -121q0 -72 -36 -133.5t-97.5 -97.5t-134.5 -36q-72 0 -133.5 36z" />
    <glyph glyph-name="uni0418" unicode="&#x418;" horiz-adv-x="542" 
d="M527 0h-170v320l-172 -171l-170 -169v710h170v-315l342 335v-710z" />
    <glyph glyph-name="uni0419" unicode="&#x419;" horiz-adv-x="542" 
d="M527 0h-170v320l-172 -171l-170 -169v710h170v-315l342 335v-710zM434 861v-9q0 -38 -22 -70.5t-57 -52t-74 -19.5t-74.5 19.5t-57.5 52t-22 70.5v9h101v-9q0 -18 14.5 -32.5t38.5 -14.5t38.5 14.5t14.5 32.5v9h100z" />
    <glyph glyph-name="uni041A" unicode="&#x41a;" horiz-adv-x="515" 
d="M15 690h170v-280l145 280h180l-166 -322q80 -32 118 -108t38 -175v-85h-170v85q0 78 -36 121.5t-109 43.5v-250h-170v690z" />
    <glyph glyph-name="uni041B" unicode="&#x41b;" horiz-adv-x="520" 
d="M335 0v491q-150 -58 -150 -277v-214h-170v218q0 158 62 263.5t172 157t256 51.5v-690h-170z" />
    <glyph glyph-name="uni041C" unicode="&#x41c;" horiz-adv-x="806" 
d="M15 690h170q67 0 128.5 -30t89.5 -70q28 40 89.5 70t128.5 30h170v-690h-170v520q-34 -2 -66.5 -18.5t-53 -49t-20.5 -77.5v-375h-156v375q0 45 -20.5 77.5t-53 49t-66.5 18.5v-520h-170v690z" />
    <glyph glyph-name="uni041D" unicode="&#x41d;" horiz-adv-x="570" 
d="M555 690v-690h-170v265h-200v-265h-170v690h170v-265h200v265h170z" />
    <glyph glyph-name="uni041E" unicode="&#x41e;" 
d="M184.5 33q-82.5 48 -130.5 131t-48 182q0 98 48 180.5t130.5 130.5t181.5 48t182 -48t131.5 -130.5t48.5 -180.5q0 -99 -48.5 -182t-131.5 -131t-182 -48t-181.5 48zM462 177q44 26 70 70.5t26 96.5t-26 96.5t-70 71.5t-95 27q-52 0 -96 -26.5t-69.5 -71.5t-25.5 -97
t25.5 -96.5t69.5 -70.5t96 -26q51 0 95 26z" />
    <glyph glyph-name="uni041F" unicode="&#x41f;" horiz-adv-x="570" 
d="M555 690v-690h-170v525h-200v-525h-170v690h540z" />
    <glyph glyph-name="uni0420" unicode="&#x420;" horiz-adv-x="493" 
d="M15 690h110q83 0 125 -4q68 -8 121 -41t83.5 -87t30.5 -123q0 -76 -37.5 -132.5t-105.5 -87t-157 -30.5v-185h-170v690zM279 366.5q36 21.5 36 70.5t-36 71t-94 22v-185q58 0 94 21.5z" />
    <glyph glyph-name="uni0421" unicode="&#x421;" horiz-adv-x="406" 
d="M260 12q-72 19 -130 67.5t-91 118t-33 147.5q0 79 33 148.5t91 118t131 66.5q47 12 120 12h10v-165h-10q-81 0 -129 -33q-34 -23 -55 -63t-21 -84t21 -84t55 -63q48 -33 129 -33h10v-165h-10q-73 0 -121 12z" />
    <glyph glyph-name="uni0422" unicode="&#x422;" horiz-adv-x="510" 
d="M495 525h-155v-525h-170v525h-155v165h480v-165z" />
    <glyph glyph-name="uni0423" unicode="&#x423;" horiz-adv-x="565" 
d="M342 204q-40 -85 -64 -123t-65.5 -59.5t-113.5 -21.5h-50v165h30q58 0 82 44l32 73l-188 408h190l88 -201l87 201h190z" />
    <glyph glyph-name="uni0424" unicode="&#x424;" 
d="M691.5 186q-36.5 -74 -100.5 -124.5t-145 -67.5v-73h-150v71q-83 16 -149 66.5t-103.5 125.5t-37.5 162t37.5 161.5t103.5 124.5t149 66v72h150v-74q81 -17 145 -67.5t100.5 -124t36.5 -158.5q0 -86 -36.5 -160zM209 235q33 -49 87 -70v360q-54 -23 -87 -72.5t-33 -108.5
q0 -60 33 -109zM527 239.5q31 47.5 31 104.5t-31 105t-81 72v-352q50 23 81 70.5z" />
    <glyph glyph-name="uni0425" unicode="&#x425;" horiz-adv-x="582" 
d="M396 0l-105 198l-105 -198h-180l190 359l-175 331h180l90 -170l90 170h180l-175 -331l190 -359h-180z" />
    <glyph glyph-name="uni0426" unicode="&#x426;" horiz-adv-x="655" 
d="M640 165v-272h-170v107h-455v690h170v-525h200v525h170v-525h85z" />
    <glyph glyph-name="uni0427" unicode="&#x427;" horiz-adv-x="535" 
d="M520 690v-690h-170v205h-53q-133 0 -207.5 74t-74.5 211v200h170v-190q0 -71 23.5 -100.5t88.5 -29.5h53v320h170z" />
    <glyph glyph-name="uni0428" unicode="&#x428;" horiz-adv-x="789" 
d="M774 690v-690h-759v690h170v-525h125v525h169v-525h125v525h170z" />
    <glyph glyph-name="uni0429" unicode="&#x429;" horiz-adv-x="884" 
d="M869 165v-272h-170v107h-684v690h170v-525h125v525h169v-525h125v525h170v-525h95z" />
    <glyph glyph-name="uni042A" unicode="&#x42a;" horiz-adv-x="628" 
d="M517 413q51 -32 78 -83.5t27 -107.5t-27 -107t-78 -83t-118 -32h-276v525h-108v165h281v-165h-3v-80h106q67 0 118 -32zM437.5 178q15.5 18 15.5 44t-15.5 44.5t-38.5 18.5h-106v-125h106q23 0 38.5 18z" />
    <glyph glyph-name="uni042B" unicode="&#x42b;" 
d="M409 413q51 -32 78 -83.5t27 -107.5t-27 -107t-78 -83t-118 -32h-276v690h170v-245h106q67 0 118 -32zM719 690v-690h-170v690h170zM329.5 178q15.5 18 15.5 44t-15.5 44.5t-38.5 18.5h-106v-125h106q23 0 38.5 18z" />
    <glyph glyph-name="uni042C" unicode="&#x42c;" horiz-adv-x="520" 
d="M409 413q51 -32 78 -83.5t27 -107.5t-27 -107t-78 -83t-118 -32h-276v690h170v-245h106q67 0 118 -32zM329.5 178q15.5 18 15.5 44t-15.5 44.5t-38.5 18.5h-106v-125h106q23 0 38.5 18z" />
    <glyph glyph-name="uni042D" unicode="&#x42d;" horiz-adv-x="406" 
d="M228 643.5q79 -46.5 125.5 -125.5t46.5 -173t-46.5 -173t-125.5 -125.5t-173 -46.5h-40v165h40q51 0 94 29t64 76h-169v150h169q-21 47 -64 76t-94 29h-40v165h40q94 0 173 -46.5z" />
    <glyph glyph-name="uni042E" unicode="&#x42e;" horiz-adv-x="939" 
d="M753 657q83 -48 131.5 -130.5t48.5 -180.5q0 -99 -48.5 -182t-131.5 -131t-182 -48q-84 0 -157.5 35.5t-124 98.5t-68.5 142h-36v-263h-170v690h170v-267h34q17 81 67 145.5t124.5 101.5t160.5 37q99 0 182 -48zM667 177q44 26 70 70.5t26 96.5t-26 96.5t-70 71.5t-95 27
q-52 0 -96 -26.5t-69.5 -71.5t-25.5 -97t25.5 -96.5t69.5 -70.5t96 -26q51 0 95 26z" />
    <glyph glyph-name="uni042F" unicode="&#x42f;" horiz-adv-x="500" 
d="M485 690v-690h-170v185q-59 0 -97 -40.5t-38 -99.5v-45h-170v45q0 73 25 127.5t73 89.5q-45 30 -69 75t-24 103q0 66 30 119.5t83.5 86.5t121.5 40q42 4 125 4h110zM221 507q-36 -23 -36 -72q0 -90 130 -90v185q-58 0 -94 -23z" />
    <glyph glyph-name="uni0430" unicode="&#x430;" horiz-adv-x="517" 
d="M74 480.5q62 106.5 172 158t256 51.5v-690h-170v100h-150v-100h-170v214q0 160 62 266.5zM332 265v226q-132 -52 -148 -226h148z" />
    <glyph glyph-name="uni0431" unicode="&#x431;" horiz-adv-x="520" 
d="M409 413q51 -32 78 -83.5t27 -107.5t-27 -107t-78 -83t-118 -32h-276v690h474v-160h-304v-85h106q67 0 118 -32zM329.5 178q15.5 18 15.5 44t-15.5 44.5t-38.5 18.5h-106v-125h106q23 0 38.5 18z" />
    <glyph glyph-name="uni0432" unicode="&#x432;" horiz-adv-x="510" 
d="M15 690h191q68 0 96 -3q59 -7 101 -38t63 -75.5t21 -91.5q0 -37 -13.5 -70.5t-42.5 -56.5q33 -24 53.5 -66t20.5 -89q0 -54 -27 -100t-78 -73t-119 -27h-266v690zM264 425q20 0 36.5 14.5t16.5 37.5t-16.5 38t-36.5 15h-79v-105h79zM281 160q21 0 37.5 13.5t16.5 38.5
t-16.5 39t-37.5 14h-96v-105h96z" />
    <glyph glyph-name="uni0433" unicode="&#x433;" horiz-adv-x="501" 
d="M486 525h-301v-525h-170v690h471v-165z" />
    <glyph glyph-name="uni0434" unicode="&#x434;" horiz-adv-x="695" 
d="M680 165v-260h-170v95h-325v-95h-170v260h25q29 0 44.5 12t15.5 44v469h495v-525h85zM425 165v360h-155v-304q0 -26 -5 -56h160z" />
    <glyph glyph-name="uni0435" unicode="&#x435;" horiz-adv-x="465" 
d="M185 525v-100h180v-160h-180v-100h265v-165h-435v690h435v-165h-265z" />
    <glyph glyph-name="uni0436" unicode="&#x436;" horiz-adv-x="810" 
d="M500 690h-170v-280l-145 280h-180l166 -322q-80 -32 -118 -108t-38 -175v-85h170v85q0 78 36 121.5t109 43.5v-250h170v690zM310 690h170v-280l145 280h180l-166 -322q80 -32 118 -108t38 -175v-85h-170v85q0 78 -36 121.5t-109 43.5v-250h-170v690z" />
    <glyph glyph-name="uni0437" unicode="&#x437;" horiz-adv-x="551" 
d="M143.5 22q-61.5 36 -97.5 97.5t-36 133.5v19h171v-13q0 -44 28 -75t69 -31q40 0 68.5 30t28.5 70q0 46 -30 78.5t-77 32.5h-173l161 161h-209v165h452l-165 -165q63 -15 111 -54.5t74 -96.5t26 -121q0 -72 -36 -133.5t-97.5 -97.5t-134.5 -36q-72 0 -133.5 36z" />
    <glyph glyph-name="uni0438" unicode="&#x438;" horiz-adv-x="542" 
d="M527 0h-170v320l-172 -171l-170 -169v710h170v-315l342 335v-710z" />
    <glyph glyph-name="uni0439" unicode="&#x439;" horiz-adv-x="542" 
d="M527 0h-170v320l-172 -171l-170 -169v710h170v-315l342 335v-710zM434 861v-9q0 -38 -22 -70.5t-57 -52t-74 -19.5t-74.5 19.5t-57.5 52t-22 70.5v9h101v-9q0 -18 14.5 -32.5t38.5 -14.5t38.5 14.5t14.5 32.5v9h100z" />
    <glyph glyph-name="uni043A" unicode="&#x43a;" horiz-adv-x="515" 
d="M15 690h170v-280l145 280h180l-166 -322q80 -32 118 -108t38 -175v-85h-170v85q0 78 -36 121.5t-109 43.5v-250h-170v690z" />
    <glyph glyph-name="uni043B" unicode="&#x43b;" horiz-adv-x="520" 
d="M335 0v491q-150 -58 -150 -277v-214h-170v218q0 158 62 263.5t172 157t256 51.5v-690h-170z" />
    <glyph glyph-name="uni043C" unicode="&#x43c;" horiz-adv-x="806" 
d="M15 690h170q67 0 128.5 -30t89.5 -70q28 40 89.5 70t128.5 30h170v-690h-170v520q-34 -2 -66.5 -18.5t-53 -49t-20.5 -77.5v-375h-156v375q0 45 -20.5 77.5t-53 49t-66.5 18.5v-520h-170v690z" />
    <glyph glyph-name="uni043D" unicode="&#x43d;" horiz-adv-x="570" 
d="M555 690v-690h-170v265h-200v-265h-170v690h170v-265h200v265h170z" />
    <glyph glyph-name="uni043E" unicode="&#x43e;" 
d="M184.5 33q-82.5 48 -130.5 131t-48 182q0 98 48 180.5t130.5 130.5t181.5 48t182 -48t131.5 -130.5t48.5 -180.5q0 -99 -48.5 -182t-131.5 -131t-182 -48t-181.5 48zM462 177q44 26 70 70.5t26 96.5t-26 96.5t-70 71.5t-95 27q-52 0 -96 -26.5t-69.5 -71.5t-25.5 -97
t25.5 -96.5t69.5 -70.5t96 -26q51 0 95 26z" />
    <glyph glyph-name="uni043F" unicode="&#x43f;" horiz-adv-x="570" 
d="M555 690v-690h-170v525h-200v-525h-170v690h540z" />
    <glyph glyph-name="uni0440" unicode="&#x440;" horiz-adv-x="493" 
d="M15 690h110q83 0 125 -4q68 -8 121 -41t83.5 -87t30.5 -123q0 -76 -37.5 -132.5t-105.5 -87t-157 -30.5v-185h-170v690zM279 366.5q36 21.5 36 70.5t-36 71t-94 22v-185q58 0 94 21.5z" />
    <glyph glyph-name="uni0441" unicode="&#x441;" horiz-adv-x="406" 
d="M260 12q-72 19 -130 67.5t-91 118t-33 147.5q0 79 33 148.5t91 118t131 66.5q47 12 120 12h10v-165h-10q-81 0 -129 -33q-34 -23 -55 -63t-21 -84t21 -84t55 -63q48 -33 129 -33h10v-165h-10q-73 0 -121 12z" />
    <glyph glyph-name="uni0442" unicode="&#x442;" horiz-adv-x="510" 
d="M495 525h-155v-525h-170v525h-155v165h480v-165z" />
    <glyph glyph-name="uni0443" unicode="&#x443;" horiz-adv-x="565" 
d="M342 204q-40 -85 -64 -123t-65.5 -59.5t-113.5 -21.5h-50v165h30q58 0 82 44l32 73l-188 408h190l88 -201l87 201h190z" />
    <glyph glyph-name="uni0444" unicode="&#x444;" 
d="M691.5 186q-36.5 -74 -100.5 -124.5t-145 -67.5v-73h-150v71q-83 16 -149 66.5t-103.5 125.5t-37.5 162t37.5 161.5t103.5 124.5t149 66v72h150v-74q81 -17 145 -67.5t100.5 -124t36.5 -158.5q0 -86 -36.5 -160zM209 235q33 -49 87 -70v360q-54 -23 -87 -72.5t-33 -108.5
q0 -60 33 -109zM527 239.5q31 47.5 31 104.5t-31 105t-81 72v-352q50 23 81 70.5z" />
    <glyph glyph-name="uni0445" unicode="&#x445;" horiz-adv-x="582" 
d="M396 0l-105 198l-105 -198h-180l190 359l-175 331h180l90 -170l90 170h180l-175 -331l190 -359h-180z" />
    <glyph glyph-name="uni0446" unicode="&#x446;" horiz-adv-x="655" 
d="M640 165v-272h-170v107h-455v690h170v-525h200v525h170v-525h85z" />
    <glyph glyph-name="uni0447" unicode="&#x447;" horiz-adv-x="535" 
d="M520 690v-690h-170v205h-53q-133 0 -207.5 74t-74.5 211v200h170v-190q0 -71 23.5 -100.5t88.5 -29.5h53v320h170z" />
    <glyph glyph-name="uni0448" unicode="&#x448;" horiz-adv-x="789" 
d="M774 690v-690h-759v690h170v-525h125v525h169v-525h125v525h170z" />
    <glyph glyph-name="uni0449" unicode="&#x449;" horiz-adv-x="884" 
d="M869 165v-272h-170v107h-684v690h170v-525h125v525h169v-525h125v525h170v-525h95z" />
    <glyph glyph-name="uni044A" unicode="&#x44a;" horiz-adv-x="628" 
d="M517 413q51 -32 78 -83.5t27 -107.5t-27 -107t-78 -83t-118 -32h-276v525h-108v165h281v-165h-3v-80h106q67 0 118 -32zM437.5 178q15.5 18 15.5 44t-15.5 44.5t-38.5 18.5h-106v-125h106q23 0 38.5 18z" />
    <glyph glyph-name="uni044B" unicode="&#x44b;" 
d="M409 413q51 -32 78 -83.5t27 -107.5t-27 -107t-78 -83t-118 -32h-276v690h170v-245h106q67 0 118 -32zM719 690v-690h-170v690h170zM329.5 178q15.5 18 15.5 44t-15.5 44.5t-38.5 18.5h-106v-125h106q23 0 38.5 18z" />
    <glyph glyph-name="uni044C" unicode="&#x44c;" horiz-adv-x="520" 
d="M409 413q51 -32 78 -83.5t27 -107.5t-27 -107t-78 -83t-118 -32h-276v690h170v-245h106q67 0 118 -32zM329.5 178q15.5 18 15.5 44t-15.5 44.5t-38.5 18.5h-106v-125h106q23 0 38.5 18z" />
    <glyph glyph-name="uni044D" unicode="&#x44d;" horiz-adv-x="406" 
d="M228 643.5q79 -46.5 125.5 -125.5t46.5 -173t-46.5 -173t-125.5 -125.5t-173 -46.5h-40v165h40q51 0 94 29t64 76h-169v150h169q-21 47 -64 76t-94 29h-40v165h40q94 0 173 -46.5z" />
    <glyph glyph-name="uni044E" unicode="&#x44e;" horiz-adv-x="939" 
d="M753 657q83 -48 131.5 -130.5t48.5 -180.5q0 -99 -48.5 -182t-131.5 -131t-182 -48q-84 0 -157.5 35.5t-124 98.5t-68.5 142h-36v-263h-170v690h170v-267h34q17 81 67 145.5t124.5 101.5t160.5 37q99 0 182 -48zM667 177q44 26 70 70.5t26 96.5t-26 96.5t-70 71.5t-95 27
q-52 0 -96 -26.5t-69.5 -71.5t-25.5 -97t25.5 -96.5t69.5 -70.5t96 -26q51 0 95 26z" />
    <glyph glyph-name="uni044F" unicode="&#x44f;" horiz-adv-x="500" 
d="M485 690v-690h-170v185q-59 0 -97 -40.5t-38 -99.5v-45h-170v45q0 73 25 127.5t73 89.5q-45 30 -69 75t-24 103q0 66 30 119.5t83.5 86.5t121.5 40q42 4 125 4h110zM221 507q-36 -23 -36 -72q0 -90 130 -90v185q-58 0 -94 -23z" />
    <glyph glyph-name="uni0451" unicode="&#x451;" horiz-adv-x="465" 
d="M185 525v-100h180v-160h-180v-100h265v-165h-435v690h435v-165h-265zM82.5 742.5q-23.5 22.5 -23.5 54.5t23.5 55t55.5 23q31 0 53.5 -23t22.5 -55t-22.5 -54.5t-53.5 -22.5q-32 0 -55.5 22.5zM286.5 742.5q-22.5 22.5 -22.5 54.5t22.5 55t54.5 23t55 -23t23 -55
t-23 -54.5t-55 -22.5t-54.5 22.5z" />
    <glyph glyph-name="uni0453" unicode="&#x453;" horiz-adv-x="501" 
d="M486 525h-301v-525h-170v690h471v-165zM239 861h159l-75 -141h-144z" />
    <glyph glyph-name="uni0454" unicode="&#x454;" horiz-adv-x="406" 
d="M257 496q-43 -29 -64 -76h169v-150h-169q21 -47 64 -76t94 -29h40v-165h-40q-94 0 -173 46.5t-125.5 125.5t-46.5 173t46.5 173t125.5 125.5t173 46.5h40v-165h-40q-51 0 -94 -29z" />
    <glyph glyph-name="uni0455" unicode="&#x455;" horiz-adv-x="458" 
d="M14 165h203q30 0 45.5 12.5t15.5 31.5t-13.5 32.5t-33.5 20.5q-79 26 -110.5 40t-54.5 38q-54 55 -54 143q0 76 40 131t113 70q26 6 105 6h93v-165h-133q-25 0 -36.5 -12t-11.5 -31q0 -40 45 -53q65 -19 100 -33t60 -35q30 -26 45.5 -65t15.5 -84q0 -62 -28.5 -110.5
t-76.5 -75t-106 -26.5h-223v165z" />
    <glyph glyph-name="uni0456" unicode="&#x456;" horiz-adv-x="200" 
d="M15 690h170v-690h-170v690z" />
    <glyph glyph-name="uni0457" unicode="&#x457;" horiz-adv-x="200" 
d="M15 690h170v-690h-170v690zM-56.5 742.5q-23.5 22.5 -23.5 54.5t23.5 55t55.5 23q31 0 53.5 -23t22.5 -55t-22.5 -54.5t-53.5 -22.5q-32 0 -55.5 22.5zM147.5 742.5q-22.5 22.5 -22.5 54.5t22.5 55t54.5 23t55 -23t23 -55t-23 -54.5t-55 -22.5t-54.5 22.5z" />
    <glyph glyph-name="uni0458" unicode="&#x458;" horiz-adv-x="252" 
d="M7 165q31 0 45.5 12.5t14.5 43.5v469h170v-469q0 -100 -60 -160.5t-170 -60.5v165z" />
    <glyph glyph-name="uni045C" unicode="&#x45c;" horiz-adv-x="515" 
d="M15 690h170v-280l145 280h180l-166 -322q80 -32 118 -108t38 -175v-85h-170v85q0 78 -36 121.5t-109 43.5v-250h-170v690zM248 861h159l-75 -141h-144z" />
    <glyph glyph-name="uni045D" unicode="&#x45d;" horiz-adv-x="542" 
d="M527 0h-170v320l-172 -171l-170 -169v710h170v-315l342 335v-710zM211 720l-75 141h159l60 -141h-144z" />
    <glyph glyph-name="uni045E" unicode="&#x45e;" horiz-adv-x="565" 
d="M342 204q-40 -85 -64 -123t-65.5 -59.5t-113.5 -21.5h-50v165h30q58 0 82 44l32 73l-188 408h190l88 -201l87 201h190zM436 861v-9q0 -38 -22 -70.5t-57 -52t-74 -19.5t-74.5 19.5t-57.5 52t-22 70.5v9h101v-9q0 -18 14.5 -32.5t38.5 -14.5t38.5 14.5t14.5 32.5v9h100z
" />
    <glyph glyph-name="uni0498" unicode="&#x498;" horiz-adv-x="551" 
d="M143.5 22q-61.5 36 -97.5 97.5t-36 133.5v19h171v-13q0 -44 28 -75t69 -31q40 0 68.5 30t28.5 70q0 46 -30 78.5t-77 32.5h-173l161 161h-209v165h452l-165 -165q63 -15 111 -54.5t74 -96.5t26 -121q0 -72 -36 -133.5t-97.5 -97.5t-134.5 -36q-72 0 -133.5 36zM297 -182
h-159l75 141h144z" />
    <glyph glyph-name="uni0499" unicode="&#x499;" horiz-adv-x="551" 
d="M143.5 22q-61.5 36 -97.5 97.5t-36 133.5v19h171v-13q0 -44 28 -75t69 -31q40 0 68.5 30t28.5 70q0 46 -30 78.5t-77 32.5h-173l161 161h-209v165h452l-165 -165q63 -15 111 -54.5t74 -96.5t26 -121q0 -72 -36 -133.5t-97.5 -97.5t-134.5 -36q-72 0 -133.5 36zM297 -182
h-159l75 141h144z" />
    <glyph glyph-name="uni04BB" unicode="&#x4bb;" horiz-adv-x="570" 
d="M555 690v-690h-170v265h-200v-265h-170v690h170v-265h200v265h170z" />
    <glyph glyph-name="uni04C0" unicode="&#x4c0;" horiz-adv-x="200" 
d="M15 690h170v-690h-170v690z" />
    <glyph glyph-name="uni04C1" unicode="&#x4c1;" horiz-adv-x="810" 
d="M500 690h-170v-280l-145 280h-180l166 -322q-80 -32 -118 -108t-38 -175v-85h170v85q0 78 36 121.5t109 43.5v-250h170v690zM310 690h170v-280l145 280h180l-166 -322q80 -32 118 -108t38 -175v-85h-170v85q0 78 -36 121.5t-109 43.5v-250h-170v690zM560 861v-9
q0 -38 -22 -70.5t-57 -52t-74 -19.5t-74.5 19.5t-57.5 52t-22 70.5v9h101v-9q0 -18 14.5 -32.5t38.5 -14.5t38.5 14.5t14.5 32.5v9h100z" />
    <glyph glyph-name="uni04C2" unicode="&#x4c2;" horiz-adv-x="810" 
d="M500 690h-170v-280l-145 280h-180l166 -322q-80 -32 -118 -108t-38 -175v-85h170v85q0 78 36 121.5t109 43.5v-250h170v690zM310 690h170v-280l145 280h180l-166 -322q80 -32 118 -108t38 -175v-85h-170v85q0 78 -36 121.5t-109 43.5v-250h-170v690zM560 861v-9
q0 -38 -22 -70.5t-57 -52t-74 -19.5t-74.5 19.5t-57.5 52t-22 70.5v9h101v-9q0 -18 14.5 -32.5t38.5 -14.5t38.5 14.5t14.5 32.5v9h100z" />
    <glyph glyph-name="uni04D0" unicode="&#x4d0;" horiz-adv-x="517" 
d="M74 480.5q62 106.5 172 158t256 51.5v-690h-170v100h-150v-100h-170v214q0 160 62 266.5zM332 265v226q-132 -52 -148 -226h148zM482 861v-9q0 -38 -22 -70.5t-57 -52t-74 -19.5t-74.5 19.5t-57.5 52t-22 70.5v9h101v-9q0 -18 14.5 -32.5t38.5 -14.5t38.5 14.5t14.5 32.5
v9h100z" />
    <glyph glyph-name="uni04D1" unicode="&#x4d1;" horiz-adv-x="517" 
d="M74 480.5q62 106.5 172 158t256 51.5v-690h-170v100h-150v-100h-170v214q0 160 62 266.5zM332 265v226q-132 -52 -148 -226h148zM482 861v-9q0 -38 -22 -70.5t-57 -52t-74 -19.5t-74.5 19.5t-57.5 52t-22 70.5v9h101v-9q0 -18 14.5 -32.5t38.5 -14.5t38.5 14.5t14.5 32.5
v9h100z" />
    <glyph glyph-name="uni04D2" unicode="&#x4d2;" horiz-adv-x="517" 
d="M74 480.5q62 106.5 172 158t256 51.5v-690h-170v100h-150v-100h-170v214q0 160 62 266.5zM332 265v226q-132 -52 -148 -226h148zM172.5 742.5q-23.5 22.5 -23.5 54.5t23.5 55t55.5 23q31 0 53.5 -23t22.5 -55t-22.5 -54.5t-53.5 -22.5q-32 0 -55.5 22.5zM376.5 742.5
q-22.5 22.5 -22.5 54.5t22.5 55t54.5 23t55 -23t23 -55t-23 -54.5t-55 -22.5t-54.5 22.5z" />
    <glyph glyph-name="uni04D3" unicode="&#x4d3;" horiz-adv-x="517" 
d="M74 480.5q62 106.5 172 158t256 51.5v-690h-170v100h-150v-100h-170v214q0 160 62 266.5zM332 265v226q-132 -52 -148 -226h148zM172.5 742.5q-23.5 22.5 -23.5 54.5t23.5 55t55.5 23q31 0 53.5 -23t22.5 -55t-22.5 -54.5t-53.5 -22.5q-32 0 -55.5 22.5zM376.5 742.5
q-22.5 22.5 -22.5 54.5t22.5 55t54.5 23t55 -23t23 -55t-23 -54.5t-55 -22.5t-54.5 22.5z" />
    <glyph glyph-name="uni04D4" unicode="&#x4d4;" horiz-adv-x="779" 
d="M502 530v-100h177v-165h-177v-100h262v-165h-432v100h-150v-100h-170v214q0 159 61.5 265.5t171 158t254.5 52.5h265v-160h-262zM332 265v226q-132 -52 -148 -226h148z" />
    <glyph glyph-name="uni04D5" unicode="&#x4d5;" horiz-adv-x="779" 
d="M502 530v-100h177v-165h-177v-100h262v-165h-432v100h-150v-100h-170v214q0 159 61.5 265.5t171 158t254.5 52.5h265v-160h-262zM332 265v226q-132 -52 -148 -226h148z" />
    <glyph glyph-name="uni04D6" unicode="&#x4d6;" horiz-adv-x="465" 
d="M185 525v-100h180v-160h-180v-100h265v-165h-435v690h435v-165h-265zM392 861v-9q0 -38 -22 -70.5t-57 -52t-74 -19.5t-74.5 19.5t-57.5 52t-22 70.5v9h101v-9q0 -18 14.5 -32.5t38.5 -14.5t38.5 14.5t14.5 32.5v9h100z" />
    <glyph glyph-name="uni04D7" unicode="&#x4d7;" horiz-adv-x="465" 
d="M185 525v-100h180v-160h-180v-100h265v-165h-435v690h435v-165h-265zM392 861v-9q0 -38 -22 -70.5t-57 -52t-74 -19.5t-74.5 19.5t-57.5 52t-22 70.5v9h101v-9q0 -18 14.5 -32.5t38.5 -14.5t38.5 14.5t14.5 32.5v9h100z" />
    <glyph glyph-name="uni04DC" unicode="&#x4dc;" horiz-adv-x="810" 
d="M500 690h-170v-280l-145 280h-180l166 -322q-80 -32 -118 -108t-38 -175v-85h170v85q0 78 36 121.5t109 43.5v-250h170v690zM310 690h170v-280l145 280h180l-166 -322q80 -32 118 -108t38 -175v-85h-170v85q0 78 -36 121.5t-109 43.5v-250h-170v690zM250.5 742.5
q-23.5 22.5 -23.5 54.5t23.5 55t55.5 23q31 0 53.5 -23t22.5 -55t-22.5 -54.5t-53.5 -22.5q-32 0 -55.5 22.5zM454.5 742.5q-22.5 22.5 -22.5 54.5t22.5 55t54.5 23t55 -23t23 -55t-23 -54.5t-55 -22.5t-54.5 22.5z" />
    <glyph glyph-name="uni04DD" unicode="&#x4dd;" horiz-adv-x="810" 
d="M500 690h-170v-280l-145 280h-180l166 -322q-80 -32 -118 -108t-38 -175v-85h170v85q0 78 36 121.5t109 43.5v-250h170v690zM310 690h170v-280l145 280h180l-166 -322q80 -32 118 -108t38 -175v-85h-170v85q0 78 -36 121.5t-109 43.5v-250h-170v690zM250.5 742.5
q-23.5 22.5 -23.5 54.5t23.5 55t55.5 23q31 0 53.5 -23t22.5 -55t-22.5 -54.5t-53.5 -22.5q-32 0 -55.5 22.5zM454.5 742.5q-22.5 22.5 -22.5 54.5t22.5 55t54.5 23t55 -23t23 -55t-23 -54.5t-55 -22.5t-54.5 22.5z" />
    <glyph glyph-name="uni04DE" unicode="&#x4de;" horiz-adv-x="551" 
d="M143.5 22q-61.5 36 -97.5 97.5t-36 133.5v19h171v-13q0 -44 28 -75t69 -31q40 0 68.5 30t28.5 70q0 46 -30 78.5t-77 32.5h-173l161 161h-209v165h452l-165 -165q63 -15 111 -54.5t74 -96.5t26 -121q0 -72 -36 -133.5t-97.5 -97.5t-134.5 -36q-72 0 -133.5 36z
M121.5 742.5q-23.5 22.5 -23.5 54.5t23.5 55t55.5 23q31 0 53.5 -23t22.5 -55t-22.5 -54.5t-53.5 -22.5q-32 0 -55.5 22.5zM325.5 742.5q-22.5 22.5 -22.5 54.5t22.5 55t54.5 23t55 -23t23 -55t-23 -54.5t-55 -22.5t-54.5 22.5z" />
    <glyph glyph-name="uni04DF" unicode="&#x4df;" horiz-adv-x="551" 
d="M143.5 22q-61.5 36 -97.5 97.5t-36 133.5v19h171v-13q0 -44 28 -75t69 -31q40 0 68.5 30t28.5 70q0 46 -30 78.5t-77 32.5h-173l161 161h-209v165h452l-165 -165q63 -15 111 -54.5t74 -96.5t26 -121q0 -72 -36 -133.5t-97.5 -97.5t-134.5 -36q-72 0 -133.5 36z
M121.5 742.5q-23.5 22.5 -23.5 54.5t23.5 55t55.5 23q31 0 53.5 -23t22.5 -55t-22.5 -54.5t-53.5 -22.5q-32 0 -55.5 22.5zM325.5 742.5q-22.5 22.5 -22.5 54.5t22.5 55t54.5 23t55 -23t23 -55t-23 -54.5t-55 -22.5t-54.5 22.5z" />
    <glyph glyph-name="uni04E2" unicode="&#x4e2;" horiz-adv-x="542" 
d="M527 0h-170v320l-172 -171l-170 -169v710h170v-315l342 335v-710zM105 850h352v-120h-352v120z" />
    <glyph glyph-name="uni04E3" unicode="&#x4e3;" horiz-adv-x="542" 
d="M527 0h-170v320l-172 -171l-170 -169v710h170v-315l342 335v-710zM105 850h352v-120h-352v120z" />
    <glyph glyph-name="uni04E4" unicode="&#x4e4;" horiz-adv-x="542" 
d="M527 0h-170v320l-172 -171l-170 -169v710h170v-315l342 335v-710zM124.5 742.5q-23.5 22.5 -23.5 54.5t23.5 55t55.5 23q31 0 53.5 -23t22.5 -55t-22.5 -54.5t-53.5 -22.5q-32 0 -55.5 22.5zM328.5 742.5q-22.5 22.5 -22.5 54.5t22.5 55t54.5 23t55 -23t23 -55t-23 -54.5
t-55 -22.5t-54.5 22.5z" />
    <glyph glyph-name="uni04E5" unicode="&#x4e5;" horiz-adv-x="542" 
d="M527 0h-170v320l-172 -171l-170 -169v710h170v-315l342 335v-710zM124.5 742.5q-23.5 22.5 -23.5 54.5t23.5 55t55.5 23q31 0 53.5 -23t22.5 -55t-22.5 -54.5t-53.5 -22.5q-32 0 -55.5 22.5zM328.5 742.5q-22.5 22.5 -22.5 54.5t22.5 55t54.5 23t55 -23t23 -55t-23 -54.5
t-55 -22.5t-54.5 22.5z" />
    <glyph glyph-name="uni04E6" unicode="&#x4e6;" 
d="M184.5 33q-82.5 48 -130.5 131t-48 182q0 98 48 180.5t130.5 130.5t181.5 48t182 -48t131.5 -130.5t48.5 -180.5q0 -99 -48.5 -182t-131.5 -131t-182 -48t-181.5 48zM462 177q44 26 70 70.5t26 96.5t-26 96.5t-70 71.5t-95 27q-52 0 -96 -26.5t-69.5 -71.5t-25.5 -97
t25.5 -96.5t69.5 -70.5t96 -26q51 0 95 26zM228.5 742.5q-23.5 22.5 -23.5 54.5t23.5 55t55.5 23q31 0 53.5 -23t22.5 -55t-22.5 -54.5t-53.5 -22.5q-32 0 -55.5 22.5zM432.5 742.5q-22.5 22.5 -22.5 54.5t22.5 55t54.5 23t55 -23t23 -55t-23 -54.5t-55 -22.5t-54.5 22.5z
" />
    <glyph glyph-name="uni04E7" unicode="&#x4e7;" 
d="M184.5 33q-82.5 48 -130.5 131t-48 182q0 98 48 180.5t130.5 130.5t181.5 48t182 -48t131.5 -130.5t48.5 -180.5q0 -99 -48.5 -182t-131.5 -131t-182 -48t-181.5 48zM462 177q44 26 70 70.5t26 96.5t-26 96.5t-70 71.5t-95 27q-52 0 -96 -26.5t-69.5 -71.5t-25.5 -97
t25.5 -96.5t69.5 -70.5t96 -26q51 0 95 26zM228.5 742.5q-23.5 22.5 -23.5 54.5t23.5 55t55.5 23q31 0 53.5 -23t22.5 -55t-22.5 -54.5t-53.5 -22.5q-32 0 -55.5 22.5zM432.5 742.5q-22.5 22.5 -22.5 54.5t22.5 55t54.5 23t55 -23t23 -55t-23 -54.5t-55 -22.5t-54.5 22.5z
" />
    <glyph glyph-name="uni04EC" unicode="&#x4ec;" horiz-adv-x="406" 
d="M228 643.5q79 -46.5 125.5 -125.5t46.5 -173t-46.5 -173t-125.5 -125.5t-173 -46.5h-40v165h40q51 0 94 29t64 76h-169v150h169q-21 47 -64 76t-94 29h-40v165h40q94 0 173 -46.5zM22.5 742.5q-23.5 22.5 -23.5 54.5t23.5 55t55.5 23q31 0 53.5 -23t22.5 -55t-22.5 -54.5
t-53.5 -22.5q-32 0 -55.5 22.5zM226.5 742.5q-22.5 22.5 -22.5 54.5t22.5 55t54.5 23t55 -23t23 -55t-23 -54.5t-55 -22.5t-54.5 22.5z" />
    <glyph glyph-name="uni04ED" unicode="&#x4ed;" horiz-adv-x="406" 
d="M228 643.5q79 -46.5 125.5 -125.5t46.5 -173t-46.5 -173t-125.5 -125.5t-173 -46.5h-40v165h40q51 0 94 29t64 76h-169v150h169q-21 47 -64 76t-94 29h-40v165h40q94 0 173 -46.5zM22.5 742.5q-23.5 22.5 -23.5 54.5t23.5 55t55.5 23q31 0 53.5 -23t22.5 -55t-22.5 -54.5
t-53.5 -22.5q-32 0 -55.5 22.5zM226.5 742.5q-22.5 22.5 -22.5 54.5t22.5 55t54.5 23t55 -23t23 -55t-23 -54.5t-55 -22.5t-54.5 22.5z" />
    <glyph glyph-name="uni04EE" unicode="&#x4ee;" horiz-adv-x="565" 
d="M342 204q-40 -85 -64 -123t-65.5 -59.5t-113.5 -21.5h-50v165h30q58 0 82 44l32 73l-188 408h190l88 -201l87 201h190zM107 850h352v-120h-352v120z" />
    <glyph glyph-name="uni04EF" unicode="&#x4ef;" horiz-adv-x="565" 
d="M342 204q-40 -85 -64 -123t-65.5 -59.5t-113.5 -21.5h-50v165h30q58 0 82 44l32 73l-188 408h190l88 -201l87 201h190zM107 850h352v-120h-352v120z" />
    <glyph glyph-name="uni04F0" unicode="&#x4f0;" horiz-adv-x="565" 
d="M342 204q-40 -85 -64 -123t-65.5 -59.5t-113.5 -21.5h-50v165h30q58 0 82 44l32 73l-188 408h190l88 -201l87 201h190zM126.5 742.5q-23.5 22.5 -23.5 54.5t23.5 55t55.5 23q31 0 53.5 -23t22.5 -55t-22.5 -54.5t-53.5 -22.5q-32 0 -55.5 22.5zM330.5 742.5
q-22.5 22.5 -22.5 54.5t22.5 55t54.5 23t55 -23t23 -55t-23 -54.5t-55 -22.5t-54.5 22.5z" />
    <glyph glyph-name="uni04F1" unicode="&#x4f1;" horiz-adv-x="565" 
d="M342 204q-40 -85 -64 -123t-65.5 -59.5t-113.5 -21.5h-50v165h30q58 0 82 44l32 73l-188 408h190l88 -201l87 201h190zM126.5 742.5q-23.5 22.5 -23.5 54.5t23.5 55t55.5 23q31 0 53.5 -23t22.5 -55t-22.5 -54.5t-53.5 -22.5q-32 0 -55.5 22.5zM330.5 742.5
q-22.5 22.5 -22.5 54.5t22.5 55t54.5 23t55 -23t23 -55t-23 -54.5t-55 -22.5t-54.5 22.5z" />
    <glyph glyph-name="uni04F4" unicode="&#x4f4;" horiz-adv-x="535" 
d="M520 690v-690h-170v205h-53q-133 0 -207.5 74t-74.5 211v200h170v-190q0 -71 23.5 -100.5t88.5 -29.5h53v320h170zM120.5 742.5q-23.5 22.5 -23.5 54.5t23.5 55t55.5 23q31 0 53.5 -23t22.5 -55t-22.5 -54.5t-53.5 -22.5q-32 0 -55.5 22.5zM324.5 742.5
q-22.5 22.5 -22.5 54.5t22.5 55t54.5 23t55 -23t23 -55t-23 -54.5t-55 -22.5t-54.5 22.5z" />
    <glyph glyph-name="uni04F5" unicode="&#x4f5;" horiz-adv-x="535" 
d="M520 690v-690h-170v205h-53q-133 0 -207.5 74t-74.5 211v200h170v-190q0 -71 23.5 -100.5t88.5 -29.5h53v320h170zM120.5 742.5q-23.5 22.5 -23.5 54.5t23.5 55t55.5 23q31 0 53.5 -23t22.5 -55t-22.5 -54.5t-53.5 -22.5q-32 0 -55.5 22.5zM324.5 742.5
q-22.5 22.5 -22.5 54.5t22.5 55t54.5 23t55 -23t23 -55t-23 -54.5t-55 -22.5t-54.5 22.5z" />
    <glyph glyph-name="uni04F8" unicode="&#x4f8;" 
d="M409 413q51 -32 78 -83.5t27 -107.5t-27 -107t-78 -83t-118 -32h-276v690h170v-245h106q67 0 118 -32zM719 690v-690h-170v690h170zM329.5 178q15.5 18 15.5 44t-15.5 44.5t-38.5 18.5h-106v-125h106q23 0 38.5 18zM213.5 742.5q-23.5 22.5 -23.5 54.5t23.5 55t55.5 23
q31 0 53.5 -23t22.5 -55t-22.5 -54.5t-53.5 -22.5q-32 0 -55.5 22.5zM417.5 742.5q-22.5 22.5 -22.5 54.5t22.5 55t54.5 23t55 -23t23 -55t-23 -54.5t-55 -22.5t-54.5 22.5z" />
    <glyph glyph-name="uni04F9" unicode="&#x4f9;" 
d="M409 413q51 -32 78 -83.5t27 -107.5t-27 -107t-78 -83t-118 -32h-276v690h170v-245h106q67 0 118 -32zM719 690v-690h-170v690h170zM329.5 178q15.5 18 15.5 44t-15.5 44.5t-38.5 18.5h-106v-125h106q23 0 38.5 18zM213.5 742.5q-23.5 22.5 -23.5 54.5t23.5 55t55.5 23
q31 0 53.5 -23t22.5 -55t-22.5 -54.5t-53.5 -22.5q-32 0 -55.5 22.5zM417.5 742.5q-22.5 22.5 -22.5 54.5t22.5 55t54.5 23t55 -23t23 -55t-23 -54.5t-55 -22.5t-54.5 22.5z" />
    <glyph glyph-name="uni1E3E" unicode="&#x1e3e;" horiz-adv-x="806" 
d="M15 690h170q67 0 128.5 -30t89.5 -70q28 40 89.5 70t128.5 30h170v-690h-170v520q-34 -2 -66.5 -18.5t-53 -49t-20.5 -77.5v-375h-156v375q0 45 -20.5 77.5t-53 49t-66.5 18.5v-520h-170v690zM391 861h159l-75 -141h-144z" />
    <glyph glyph-name="Wgrave" unicode="&#x1e80;" horiz-adv-x="808" 
d="M137.5 19q-54.5 29 -88.5 90t-34 151v430h170v-430q0 -57 17.5 -81t49.5 -24t49.5 24t17.5 81v430h170v-430q0 -57 17.5 -81t49.5 -24t49.5 24t17.5 81v430h170v-430q0 -90 -34 -151t-88.5 -90t-116.5 -29q-45 0 -85 16t-65 49q-25 -33 -65 -49t-85 -16q-62 0 -116.5 29z
M334 720l-75 141h159l60 -141h-144z" />
    <glyph glyph-name="wgrave" unicode="&#x1e81;" horiz-adv-x="808" 
d="M137.5 19q-54.5 29 -88.5 90t-34 151v430h170v-430q0 -57 17.5 -81t49.5 -24t49.5 24t17.5 81v430h170v-430q0 -57 17.5 -81t49.5 -24t49.5 24t17.5 81v430h170v-430q0 -90 -34 -151t-88.5 -90t-116.5 -29q-45 0 -85 16t-65 49q-25 -33 -65 -49t-85 -16q-62 0 -116.5 29z
M334 720l-75 141h159l60 -141h-144z" />
    <glyph glyph-name="Wacute" unicode="&#x1e82;" horiz-adv-x="808" 
d="M137.5 19q-54.5 29 -88.5 90t-34 151v430h170v-430q0 -57 17.5 -81t49.5 -24t49.5 24t17.5 81v430h170v-430q0 -57 17.5 -81t49.5 -24t49.5 24t17.5 81v430h170v-430q0 -90 -34 -151t-88.5 -90t-116.5 -29q-45 0 -85 16t-65 49q-25 -33 -65 -49t-85 -16q-62 0 -116.5 29z
M392 861h159l-75 -141h-144z" />
    <glyph glyph-name="wacute" unicode="&#x1e83;" horiz-adv-x="808" 
d="M137.5 19q-54.5 29 -88.5 90t-34 151v430h170v-430q0 -57 17.5 -81t49.5 -24t49.5 24t17.5 81v430h170v-430q0 -57 17.5 -81t49.5 -24t49.5 24t17.5 81v430h170v-430q0 -90 -34 -151t-88.5 -90t-116.5 -29q-45 0 -85 16t-65 49q-25 -33 -65 -49t-85 -16q-62 0 -116.5 29z
M392 861h159l-75 -141h-144z" />
    <glyph glyph-name="Wdieresis" unicode="&#x1e84;" horiz-adv-x="808" 
d="M137.5 19q-54.5 29 -88.5 90t-34 151v430h170v-430q0 -57 17.5 -81t49.5 -24t49.5 24t17.5 81v430h170v-430q0 -57 17.5 -81t49.5 -24t49.5 24t17.5 81v430h170v-430q0 -90 -34 -151t-88.5 -90t-116.5 -29q-45 0 -85 16t-65 49q-25 -33 -65 -49t-85 -16q-62 0 -116.5 29z
M247.5 742.5q-23.5 22.5 -23.5 54.5t23.5 55t55.5 23q31 0 53.5 -23t22.5 -55t-22.5 -54.5t-53.5 -22.5q-32 0 -55.5 22.5zM451.5 742.5q-22.5 22.5 -22.5 54.5t22.5 55t54.5 23t55 -23t23 -55t-23 -54.5t-55 -22.5t-54.5 22.5z" />
    <glyph glyph-name="wdieresis" unicode="&#x1e85;" horiz-adv-x="808" 
d="M137.5 19q-54.5 29 -88.5 90t-34 151v430h170v-430q0 -57 17.5 -81t49.5 -24t49.5 24t17.5 81v430h170v-430q0 -57 17.5 -81t49.5 -24t49.5 24t17.5 81v430h170v-430q0 -90 -34 -151t-88.5 -90t-116.5 -29q-45 0 -85 16t-65 49q-25 -33 -65 -49t-85 -16q-62 0 -116.5 29z
M247.5 742.5q-23.5 22.5 -23.5 54.5t23.5 55t55.5 23q31 0 53.5 -23t22.5 -55t-22.5 -54.5t-53.5 -22.5q-32 0 -55.5 22.5zM451.5 742.5q-22.5 22.5 -22.5 54.5t22.5 55t54.5 23t55 -23t23 -55t-23 -54.5t-55 -22.5t-54.5 22.5z" />
    <glyph glyph-name="uni1E9E" unicode="&#x1e9e;" horiz-adv-x="582" 
d="M560 288.5q17 -34.5 17 -79.5q0 -60 -28.5 -107.5t-76.5 -74.5t-106 -27h-131v165h111q30 0 45.5 12.5t15.5 31.5q0 16 -9.5 25.5t-21.5 17t-16 10.5l-103 66q-26 17 -26 41q0 12 4 21l4 9l63 131h-117v-530h-170v690h534l-132 -275q64 -39 92 -63q34 -29 51 -63.5z" />
    <glyph glyph-name="uni1EBC" unicode="&#x1ebc;" horiz-adv-x="465" 
d="M185 525v-100h180v-160h-180v-100h265v-165h-435v690h435v-165h-265zM254 737.5q-17 7.5 -37 21.5q-3 2 -12 7.5t-16.5 8t-13.5 2.5q-17 0 -29 -11.5t-12 -27.5h-95q0 36 18 68t49.5 51.5t68.5 19.5q26 0 42.5 -7.5t37.5 -21.5q13 -10 21.5 -14t18.5 -4q16 0 26.5 11
t10.5 28h94q0 -36 -17.5 -68t-47.5 -51.5t-66 -19.5q-24 0 -41 7.5z" />
    <glyph glyph-name="Ygrave" unicode="&#x1ef2;" horiz-adv-x="550" 
d="M190 340l-185 350h180l90 -170l90 170h180l-185 -350v-340h-170v340zM205 720l-75 141h159l60 -141h-144z" />
    <glyph glyph-name="ygrave" unicode="&#x1ef3;" horiz-adv-x="550" 
d="M190 340l-185 350h180l90 -170l90 170h180l-185 -350v-340h-170v340zM205 720l-75 141h159l60 -141h-144z" />
    <glyph glyph-name="endash" unicode="&#x2013;" horiz-adv-x="505" 
d="M15 415h475v-140h-475v140z" />
    <glyph glyph-name="emdash" unicode="&#x2014;" horiz-adv-x="815" 
d="M15 415h785v-140h-785v140z" />
    <glyph glyph-name="quoteleft" unicode="&#x2018;" horiz-adv-x="195" 
d="M155 668q-41 -37 -41 -74q35 -2 55 -27t20 -57q0 -37 -25.5 -61.5t-63.5 -24.5q-40 0 -67 28t-27 77q0 42 20 75.5t54 52.5t75 19v-8z" />
    <glyph glyph-name="quoteright" unicode="&#x2019;" horiz-adv-x="204" 
d="M40 456q41 37 41 74q-35 2 -55 27t-20 57q0 37 25.5 61.5t63.5 24.5q40 0 67 -28t27 -77q0 -42 -20 -75.5t-54 -52.5t-75 -19v8z" />
    <glyph glyph-name="quotesinglbase" unicode="&#x201a;" horiz-adv-x="195" 
d="M155 192q-41 -37 -41 -74q35 -2 55 -27t20 -57q0 -37 -25.5 -61.5t-63.5 -24.5q-40 0 -67 28t-27 77q0 42 20 75.5t54 52.5t75 19v-8z" />
    <glyph glyph-name="quotedblleft" unicode="&#x201c;" horiz-adv-x="398" 
d="M155 668q-41 -37 -41 -74q35 -2 55 -27t20 -57q0 -37 -25.5 -61.5t-63.5 -24.5q-40 0 -67 28t-27 77q0 42 20 75.5t54 52.5t75 19v-8zM358 668q-41 -37 -41 -74q35 -2 55 -27t20 -57q0 -37 -25.5 -61.5t-63.5 -24.5q-40 0 -67 28t-27 77q0 42 20 75.5t54 52.5t75 19v-8z
" />
    <glyph glyph-name="quotedblright" unicode="&#x201d;" horiz-adv-x="398" 
d="M243 456q41 37 41 74q-35 2 -55 27t-20 57q0 37 25.5 61.5t63.5 24.5q40 0 67 -28t27 -77q0 -42 -20 -75.5t-54 -52.5t-75 -19v8zM40 456q41 37 41 74q-35 2 -55 27t-20 57q0 37 25.5 61.5t63.5 24.5q40 0 67 -28t27 -77q0 -42 -20 -75.5t-54 -52.5t-75 -19v8z" />
    <glyph glyph-name="quotedblbase" unicode="&#x201e;" horiz-adv-x="398" 
d="M155 218q-41 -37 -41 -74q35 -2 55 -27t20 -57q0 -37 -25.5 -61.5t-63.5 -24.5q-40 0 -67 28t-27 77q0 42 20 75.5t54 52.5t75 19v-8zM358 218q-41 -37 -41 -74q35 -2 55 -27t20 -57q0 -37 -25.5 -61.5t-63.5 -24.5q-40 0 -67 28t-27 77q0 42 20 75.5t54 52.5t75 19v-8z
" />
    <glyph glyph-name="dagger" unicode="&#x2020;" horiz-adv-x="400" 
d="M390 445h-120v-325h-140v325h-120v135h120v110h140v-110h120v-135z" />
    <glyph glyph-name="daggerdbl" unicode="&#x2021;" horiz-adv-x="406" 
d="M273 445v-80h120v-135h-120v-110h-140v110h-120v135h120v80h-120v135h120v110h140v-110h120v-135h-120z" />
    <glyph glyph-name="bullet" unicode="&#x2022;" horiz-adv-x="358" 
d="M94 198q-39 23 -62 62t-23 85t23 85t62 62t85 23t85 -23t62 -62t23 -85t-23 -85t-62 -62t-85 -23t-85 23z" />
    <glyph glyph-name="ellipsis" unicode="&#x2026;" horiz-adv-x="675" 
d="M33.5 20.5q-27.5 27.5 -27.5 68.5q0 39 27.5 66.5t68.5 27.5q40 0 67 -27.5t27 -66.5q0 -41 -27 -68.5t-67 -27.5q-41 0 -68.5 27.5zM269.5 20.5q-27.5 27.5 -27.5 68.5q0 39 27.5 66.5t68.5 27.5q40 0 67 -27.5t27 -66.5q0 -41 -27 -68.5t-67 -27.5q-41 0 -68.5 27.5z
M506.5 20.5q-27.5 27.5 -27.5 68.5q0 39 27.5 66.5t68.5 27.5q40 0 67 -27.5t27 -66.5q0 -41 -27 -68.5t-67 -27.5q-41 0 -68.5 27.5z" />
    <glyph glyph-name="perthousand" unicode="&#x2030;" horiz-adv-x="1240" 
d="M106 364.5q-42 24.5 -66.5 66.5t-24.5 93t24.5 92.5t66.5 65.5t93 24t93 -24t66.5 -65.5t24.5 -92.5t-24.5 -93t-66.5 -66.5t-93 -24.5t-93 24.5zM535 690h180l-400 -690h-180zM237.5 484q16.5 17 16.5 41q0 23 -16.5 39t-39.5 16t-38.5 -16t-15.5 -39q0 -24 15.5 -41
t38.5 -17t39.5 17zM558 4.5q-42 24.5 -66.5 66.5t-24.5 93q0 50 24.5 91.5t66.5 66t93 24.5t93 -24.5t66.5 -66t24.5 -91.5q0 -51 -24.5 -93t-66.5 -66.5t-93 -24.5t-93 24.5zM948 4.5q-42 24.5 -66.5 66.5t-24.5 93q0 50 24.5 91.5t66.5 66t93 24.5t93 -24.5t66.5 -66
t24.5 -91.5q0 -51 -24.5 -93t-66.5 -66.5t-93 -24.5t-93 24.5zM689.5 124q16.5 17 16.5 41q0 23 -16.5 39t-39.5 16t-38.5 -16t-15.5 -39q0 -24 15.5 -41t38.5 -17t39.5 17zM1079.5 124q16.5 17 16.5 41q0 23 -16.5 39t-39.5 16t-38.5 -16t-15.5 -39q0 -24 15.5 -41
t38.5 -17t39.5 17z" />
    <glyph glyph-name="guilsinglleft" unicode="&#x2039;" horiz-adv-x="277" 
d="M157 317l110 -193h-152l-110 193l110 193h152z" />
    <glyph glyph-name="guilsinglright" unicode="&#x203a;" horiz-adv-x="277" 
d="M120 317l-110 -193h152l110 193l-110 193h-152z" />
    <glyph glyph-name="fraction" unicode="&#x2044;" horiz-adv-x="280" 
d="M270 690h180l-460 -690h-180z" />
    <glyph glyph-name="Euro" unicode="&#x20ac;" horiz-adv-x="516" 
d="M502 690v-165h-66q-41 0 -77 -19t-61 -51h155l-20 -90h-424l20 90h79q23 68 71.5 121.5t115 83.5t141.5 30h66zM359 184q36 -19 77 -19h66v-165h-66q-75 0 -141.5 30t-115 83.5t-71.5 121.5h-93l20 90h390l-20 -90h-107q25 -32 61 -51z" />
    <glyph glyph-name="trademark" unicode="&#x2122;" horiz-adv-x="753" 
d="M10 690h259v-90h-79v-237h-100v237h-80v90zM735 690v-327h-100v237q-24 0 -47 -15t-23 -38v-184h-100v184q0 23 -23 38t-47 15v-237h-100v327h100q30 0 67.5 -13t53.5 -27q16 14 52.5 27t66.5 13h100z" />
    <glyph glyph-name="arrowleft" unicode="&#x2190;" horiz-adv-x="731" 
d="M7 345l194 -178q86 -80 153 -80q57 0 105 50l-148 125h410v160h-418l156 131q-48 50 -105 50q-67 0 -153 -80zM212 345l1 1v-2z" />
    <glyph glyph-name="arrowup" unicode="&#x2191;" horiz-adv-x="532" 
d="M266 664l178 -194q80 -86 80 -153q0 -57 -50 -105l-125 148v-410h-160v418l-131 -156q-50 48 -50 105q0 67 80 153zM266 459l-1 -1h2z" />
    <glyph glyph-name="arrowright" unicode="&#x2192;" horiz-adv-x="731" 
d="M724 345l-194 -178q-86 -80 -153 -80q-57 0 -105 50l148 125h-410v160h418l-156 131q48 50 105 50q67 0 153 -80zM519 345l-1 1v-2z" />
    <glyph glyph-name="arrowdown" unicode="&#x2193;" horiz-adv-x="532" 
d="M266 24l-178 194q-80 86 -80 153q0 57 50 105l125 -148v410h160v-418l131 156q50 -48 50 -105q0 -67 -80 -153zM266 229l1 1h-2z" />
    <glyph glyph-name="minus" unicode="&#x2212;" horiz-adv-x="536" 
d="M18 415h500v-140h-500v140z" />
    <glyph glyph-name="approxequal" unicode="&#x2248;" horiz-adv-x="645" 
d="M37 486q29 49 78 78t107 29q40 0 67.5 -12t61.5 -34q25 -15 39 -22t31 -7q30 0 52 24t22 55h140q0 -58 -29 -107t-78 -78t-107 -29q-40 0 -67.5 12t-61.5 34q-25 15 -39 22t-31 7q-30 0 -52 -24t-22 -55h-140q0 58 29 107zM37 200q29 49 78 78t107 29q40 0 67.5 -12
t61.5 -34q25 -15 39 -22t31 -7q30 0 52 24t22 55h140q0 -58 -29 -107t-78 -78t-107 -29q-40 0 -67.5 12t-61.5 34q-25 15 -39 22t-31 7q-30 0 -52 -24t-22 -55h-140q0 58 29 107z" />
    <glyph glyph-name="notequal" unicode="&#x2260;" horiz-adv-x="522" 
d="M357 385l-18 -80h172v-140h-204l-39 -175h-150l39 175h-146v140h178l18 80h-196v140h228l39 175h150l-39 -175h122v-140h-154z" />
    <glyph glyph-name="lessequal" unicode="&#x2264;" horiz-adv-x="475" 
d="M1 485v-140l449 -155v140l-264 91l264 109v140zM450 130h-445v-130h445v130z" />
    <glyph glyph-name="greaterequal" unicode="&#x2265;" horiz-adv-x="475" 
d="M464 485v-140l-449 -155v140l264 91l-264 109v140zM15 130h445v-130h-445v130z" />
    <glyph glyph-name="i.loclTRK" horiz-adv-x="200" 
d="M15 690h170v-690h-170v690zM40 745q-25 25 -25 60t25 60t60 25t60 -25t25 -60t-25 -60t-60 -25t-60 25z" />
    <glyph glyph-name="caroncomb.alt" horiz-adv-x="0" 
d="M-134 690h130l-34 -171h-115z" />
    <glyph glyph-name="uni0308.narrow" horiz-adv-x="0" 
d="M-321.5 602.5q-23.5 22.5 -23.5 54.5t23.5 55t55.5 23q31 0 53.5 -23t22.5 -55t-22.5 -54.5t-53.5 -22.5q-32 0 -55.5 22.5zM-137.5 602.5q-22.5 22.5 -22.5 54.5t22.5 55t54.5 23t55 -23t23 -55t-23 -54.5t-55 -22.5t-54.5 22.5z" />
    <glyph glyph-name="uni0302.narrow" horiz-adv-x="0" 
d="M-7 670v-120l-146 90l-146 -90v120l146 90z" />
    <glyph glyph-name="tildecomb.narrow" horiz-adv-x="0" 
d="M-159 596q-12 6 -26 18q-9 9 -18 14t-22 5q-10 0 -20.5 -10t-10.5 -25h-95q0 36 17.5 68t46.5 51.5t62 19.5q22 0 36.5 -7t29.5 -19q11 -9 18 -13t16 -4q10 0 18.5 9.5t8.5 25.5h94q0 -57 -34 -98t-87 -41q-22 0 -34 6z" />
    <glyph glyph-name="uni0304.narrow" horiz-adv-x="0" 
d="M-283 710h272v-120h-272v120z" />
    <glyph glyph-name="brevecombcy" horiz-adv-x="0" 
d="M-5 721v-9q0 -38 -22 -70.5t-57 -52t-74 -19.5t-74.5 19.5t-57.5 52t-22 70.5v9h101v-9q0 -18 14.5 -32.5t38.5 -14.5t38.5 14.5t14.5 32.5v9h100z" />
    </font>
</defs>
</svg>
